<svg width="49" height="42" viewBox="0 0 49 42" fill="none" xmlns="http://www.w3.org/2000/svg">
<path d="M36.5684 13.5561C34.5753 11.5222 31.4228 9.50872 27.9043 8.02401C24.345 6.51897 20.6841 5.66475 17.8367 5.66475C15.2334 5.66475 13.4843 6.3766 12.9352 7.67826C12.1623 9.52906 13.8707 12.1934 17.3893 14.7154C11.5318 11.868 7.62684 8.24773 8.48106 6.23423C8.84715 5.35968 10.1285 4.89189 12.1013 4.89189C13.403 4.89189 14.9894 5.09528 16.6978 5.50205C16.7995 5.52238 16.8808 5.46137 16.9012 5.38002C16.9215 5.29866 16.8808 5.19697 16.7791 5.17663C13.9724 4.36309 11.3895 3.91565 9.31493 3.91565C6.85398 3.91565 5.28792 4.5258 4.7998 5.68509C3.76254 8.20706 8.27767 12.5595 15.5385 16.0374C17.491 18.1932 20.7858 20.3288 24.5484 21.9355C28.1076 23.4405 31.7686 24.2948 34.6159 24.2948C37.2193 24.2948 38.9684 23.5829 39.5175 22.2812C40.3717 20.2881 38.2565 17.339 34.1888 14.634C37.2396 15.9967 39.9243 17.6441 41.8361 19.2915C43.8292 21.0203 44.7241 22.627 44.2767 23.6643C43.9106 24.5388 42.6293 25.0066 40.6564 25.0066C39.3548 25.0066 37.7684 24.8032 36.06 24.3964C35.9786 24.3761 35.8769 24.4371 35.8566 24.5185C35.8362 24.5998 35.8769 24.7015 35.9786 24.7219C38.7853 25.5354 41.3683 25.9828 43.4428 25.9828C45.9038 25.9828 47.4698 25.3727 47.9579 24.2134C49.0155 21.6101 44.1547 17.0339 36.5684 13.5561ZM34.5346 18.2339C34.6769 17.9288 34.7176 17.5627 34.677 17.1966C35.5312 18.3356 35.8159 19.3729 35.4701 20.1457C35.043 21.1626 33.6397 21.7118 31.5042 21.7118C29.0839 21.7118 25.9314 20.9796 22.8807 19.6779C21.2332 18.9864 19.7079 18.1729 18.3655 17.278C22.6773 19.0068 26.8873 20.0033 30.0194 20.0033C32.4804 20.0033 34.0465 19.3932 34.5346 18.2339ZM18.2232 11.6646C18.0198 12.1527 18.0198 12.6815 18.2028 13.2917C17.0232 11.929 16.5758 10.7087 16.9622 9.79345C17.3893 8.79687 18.7926 8.2274 20.9282 8.2274C23.3484 8.2274 26.5009 8.95958 29.5517 10.2612C30.894 10.8307 32.1957 11.5019 33.3753 12.2137C29.4296 10.729 25.6263 9.89515 22.7383 9.89515C20.2773 9.89515 18.7113 10.5053 18.2232 11.6646Z" fill="black"/>
<path d="M8.35903 34.1183C9.94543 34.1996 12.0403 33.7522 14.1148 32.9183C16.4537 31.9624 18.3249 30.7014 19.3418 29.4811C19.3418 29.5015 19.3418 29.5218 19.3621 29.5218C19.4028 29.6032 19.5045 29.6235 19.5858 29.5828C22.779 27.8337 24.5281 25.9016 24.04 24.6813C23.7552 23.9898 22.8603 23.6237 21.4163 23.6237C19.7892 23.6237 17.6944 24.0711 15.4978 24.8846H15.4165C13.8504 24.8846 11.9386 25.3117 10.0064 26.1049C8.13531 26.8575 6.4879 27.854 5.36928 28.9116C5.18624 29.0744 5.02353 29.2371 4.88116 29.4201C4.88116 29.3998 4.88116 29.3794 4.86082 29.3591C4.82015 29.2777 4.71846 29.2574 4.6371 29.2981C1.44397 31.0472 -0.305136 32.9793 0.182986 34.1996C0.467724 34.8911 1.36261 35.2572 2.80664 35.2572C4.31169 35.2369 6.28451 34.8505 8.35903 34.1183ZM7.62685 31.3523C7.7082 31.5353 7.83023 31.7184 8.01328 31.8404C7.26076 31.7387 6.73196 31.454 6.56925 31.0472C6.34553 30.498 6.73196 29.7048 7.62685 28.871C8.56242 27.9761 9.96577 27.1422 11.5522 26.4914C11.9996 26.3083 12.4674 26.1456 12.9148 26.0033C9.31494 27.793 7.07771 29.9896 7.62685 31.3523ZM14.9283 30.5591C16.3114 29.3794 16.8808 28.3218 16.5758 27.5286C16.5351 27.4269 16.4741 27.3253 16.3927 27.2236C17.0029 27.3456 17.3893 27.61 17.5317 27.9557C18.0198 29.1354 15.7215 31.2302 12.5487 32.5116C11.9386 32.7556 11.3081 32.9793 10.698 33.142C12.386 32.3895 13.8504 31.4743 14.9283 30.5591ZM20.0333 27.1829C19.7282 26.41 18.7113 26.0033 17.2062 26.0033C16.7791 26.0033 16.3114 26.0439 15.8232 26.1049C17.4706 25.5558 19.0367 25.2304 20.2774 25.2304C21.3756 25.2304 22.0875 25.4948 22.2705 25.9422C22.5756 26.6948 21.518 27.9557 19.5452 29.2167C20.074 28.4642 20.2774 27.7727 20.0333 27.1829ZM4.06763 31.8404C4.3727 32.6132 5.38962 33.02 6.89467 33.02C7.15907 33.02 7.46414 32.9997 7.76922 32.9793C6.34553 33.4064 5.00319 33.6505 3.9456 33.6505C2.84732 33.6505 2.13548 33.3861 1.95243 32.9387C1.64735 32.1861 2.72529 30.9048 4.69812 29.6642C4.02695 30.4777 3.80323 31.2302 4.06763 31.8404Z" fill="black"/>
<path d="M38.1141 33.9962L35.6328 34.5047L33.66 32.8776C33.3549 32.6132 33.0498 32.7352 33.0091 33.142L32.7244 35.6843L30.5889 37.047C30.2431 37.2707 30.2838 37.5554 30.6499 37.7181L33.0295 38.6741L33.6193 41.257C33.7006 41.6638 34.0057 41.7452 34.2905 41.4604L36.0396 39.691L38.5209 39.752C38.9276 39.752 39.07 39.4876 38.8463 39.1622L37.3616 36.9453L38.5209 34.5454C38.6836 34.1386 38.5005 33.9149 38.1141 33.9962Z" fill="black"/>
<path d="M24.6907 33.5488L23.5518 33.7928L22.6569 33.0403C22.5145 32.9183 22.3925 32.9793 22.3518 33.1623L22.2094 34.3216L21.2332 34.9521C21.0705 35.0538 21.0908 35.1962 21.2535 35.2572L22.3315 35.7046L22.5959 36.8843C22.6365 37.0673 22.7789 37.108 22.9009 36.9656L23.6941 36.1521L24.8331 36.1724C25.0161 36.1724 25.0771 36.0504 24.9755 35.908L24.3043 34.8911L24.8331 33.7928C24.9551 33.6098 24.8738 33.5081 24.6907 33.5488Z" fill="black"/>
<path d="M35.165 3.79364H36.4666L37.3615 4.7292C37.5039 4.87157 37.6666 4.8309 37.7073 4.62751L37.9717 3.26484L39.2937 2.79705C39.4971 2.73604 39.5174 2.57333 39.3344 2.4513L38.2157 1.71912L38.0937 0.39712C38.0734 0.193736 37.931 0.13272 37.748 0.254751L36.6904 1.08863L35.3887 0.803889C35.1853 0.763212 35.0836 0.885242 35.165 1.06829L35.6938 2.30893L34.9616 3.48856C34.8802 3.65127 34.9616 3.79364 35.165 3.79364Z" fill="black"/>
<path d="M3.55927 21.2441H4.86093L5.75582 22.1796C5.89819 22.322 6.06089 22.2813 6.10157 22.078L6.36597 20.7153L7.68797 20.2475C7.89135 20.1865 7.91169 20.0238 7.72864 19.9017L6.61003 19.1696L6.488 17.8476C6.46766 17.6442 6.32529 17.5832 6.14225 17.7052L5.08465 18.5391L3.78299 18.2543C3.5796 18.2137 3.47791 18.3357 3.55927 18.5187L4.08807 19.7594L3.35588 20.939C3.27453 21.1017 3.35588 21.2441 3.55927 21.2441Z" fill="black"/>
</svg>
