<svg width="48" height="48" viewBox="0 0 48 48" fill="none" xmlns="http://www.w3.org/2000/svg">
<path d="M47.3577 23.1976C47.3489 23.1976 47.3403 23.1974 47.3316 23.197C46.9805 23.1828 46.7073 22.8867 46.7215 22.5356C46.7253 22.4386 46.7273 22.3412 46.7273 22.2434C46.7273 21.8921 47.0122 21.6072 47.3635 21.6072C47.7149 21.6072 47.9997 21.8921 47.9997 22.2434C47.9997 22.3583 47.9973 22.4729 47.9927 22.587C47.9792 22.9294 47.6972 23.1976 47.3577 23.1976Z" fill="black"/>
<path d="M30.1842 34.2888C30.1807 34.2888 30.1774 34.2888 30.1741 34.2887C29.9526 34.2852 29.7325 34.2783 29.5137 34.268C29.1628 34.2514 28.8917 33.9534 28.9082 33.6023C28.9247 33.2514 29.2216 32.9798 29.5738 32.9968C29.7792 33.0065 29.9858 33.013 30.1937 33.0161C30.5451 33.0216 30.8254 33.3108 30.82 33.6622C30.8147 34.0105 30.5309 34.2888 30.1842 34.2888ZM32.4232 34.2174C32.0937 34.2174 31.815 33.9635 31.7895 33.6295C31.7628 33.2791 32.0251 32.9734 32.3755 32.9468C32.5837 32.9308 32.7907 32.9123 32.9965 32.8909C33.3446 32.8553 33.6586 33.1089 33.6948 33.4584C33.7309 33.808 33.4768 34.1206 33.1273 34.1567C32.9102 34.1791 32.692 34.1987 32.4724 34.2155C32.4558 34.2169 32.4394 34.2174 32.4232 34.2174ZM27.3162 34.0358C27.282 34.0358 27.2475 34.0332 27.2128 34.0273C26.9944 33.9916 26.775 33.9519 26.5612 33.9092C26.2166 33.8406 25.9927 33.5056 26.0613 33.161C26.1298 32.8163 26.4656 32.5926 26.8095 32.6612C27.0094 32.701 27.2142 32.738 27.4183 32.7715C27.7651 32.8281 28.0002 33.1553 27.9434 33.5022C27.8922 33.8142 27.6223 34.0358 27.3162 34.0358ZM35.277 33.8266C34.9798 33.8266 34.714 33.6171 34.6537 33.3144C34.5851 32.9698 34.8088 32.6348 35.1534 32.5661C35.358 32.5254 35.5608 32.4818 35.762 32.4358C36.1044 32.357 36.4458 32.5715 36.5241 32.914C36.6025 33.2566 36.3884 33.5978 36.0459 33.6761C35.8331 33.7249 35.6184 33.7708 35.4019 33.814C35.3599 33.8226 35.3181 33.8266 35.277 33.8266ZM24.5194 33.3485C24.4524 33.3485 24.3842 33.3379 24.3172 33.3155C24.1069 33.2449 23.8961 33.1698 23.6907 33.092C23.3621 32.9676 23.1966 32.6002 23.3211 32.2717C23.4455 31.943 23.8133 31.7774 24.1414 31.902C24.3314 31.9741 24.5266 32.0436 24.7214 32.1089C25.0546 32.2205 25.2342 32.5811 25.1226 32.9142C25.0336 33.1803 24.7855 33.3485 24.5194 33.3485ZM38.0603 33.0828C37.7953 33.0828 37.548 32.916 37.4579 32.6513C37.3449 32.3185 37.5228 31.9571 37.8554 31.844C38.0527 31.777 38.2476 31.7074 38.44 31.6352C38.7691 31.5118 39.1358 31.6786 39.2592 32.0075C39.3826 32.3365 39.2159 32.7033 38.8869 32.8267C38.6822 32.9035 38.4749 32.9775 38.2651 33.0489C38.1973 33.0717 38.1282 33.0828 38.0603 33.0828ZM21.8844 32.1895C21.7788 32.1895 21.6718 32.1633 21.5734 32.1079C21.3773 31.9978 21.183 31.8826 20.9964 31.7656C20.6986 31.5789 20.6085 31.1863 20.7951 30.8886C20.9816 30.5909 21.3744 30.5008 21.6721 30.6873C21.8417 30.7936 22.0181 30.8983 22.1965 30.9985C22.5028 31.1705 22.6118 31.5584 22.4397 31.8647C22.323 32.0726 22.1069 32.1895 21.8844 32.1895ZM40.7131 31.9612C40.4825 31.9612 40.26 31.8354 40.1471 31.6165C39.9859 31.3042 40.1086 30.9204 40.4208 30.7594C40.6047 30.6645 40.7876 30.5659 40.9643 30.4665C41.2704 30.2942 41.6585 30.4026 41.8308 30.7089C42.0032 31.0152 41.8947 31.4031 41.5884 31.5755C41.3983 31.6826 41.2017 31.7884 41.0042 31.8903C40.9109 31.9384 40.8113 31.9612 40.7131 31.9612ZM19.5554 30.5042C19.3997 30.5042 19.2435 30.4473 19.1208 30.3324C18.9535 30.1757 18.7912 30.0138 18.6385 29.8514C18.3979 29.5953 18.4104 29.1927 18.6666 28.952C18.9228 28.7114 19.3255 28.7242 19.566 28.9801C19.7001 29.1229 19.8429 29.2654 19.9905 29.4035C20.2471 29.6438 20.2602 30.0463 20.0201 30.3028C19.8947 30.4365 19.7253 30.5042 19.5554 30.5042ZM43.1486 30.4273C42.9576 30.4273 42.7686 30.3415 42.6434 30.1783C42.4295 29.8995 42.482 29.5001 42.7608 29.2862C42.9243 29.1608 43.0848 29.0318 43.2378 28.903C43.5067 28.6771 43.9081 28.7114 44.1343 28.9802C44.3605 29.2492 44.3259 29.6505 44.0571 29.8768C43.8894 30.0178 43.714 30.1587 43.5355 30.2956C43.42 30.3844 43.2837 30.4273 43.1486 30.4273ZM45.228 28.4415C45.0854 28.4415 44.9418 28.3938 44.8231 28.2957C44.5521 28.072 44.5141 27.6709 44.7379 27.4C44.867 27.2437 44.9916 27.0837 45.1081 26.9245C45.3157 26.6409 45.7136 26.5794 45.9973 26.7867C46.2808 26.9943 46.3425 27.3924 46.135 27.676C46.0038 27.8551 45.8638 28.035 45.7188 28.2105C45.593 28.3629 45.4112 28.4415 45.228 28.4415ZM17.7931 28.2423C17.5651 28.2423 17.3446 28.1193 17.2303 27.9038C17.1211 27.6976 17.0205 27.4858 16.9318 27.2743C16.7956 26.9503 16.948 26.5774 17.272 26.4412C17.596 26.3051 17.969 26.4574 18.1051 26.7814C18.1793 26.958 18.2632 27.1352 18.3549 27.3079C18.5194 27.6184 18.4011 28.0036 18.0906 28.1681C17.9956 28.2184 17.8936 28.2423 17.7931 28.2423ZM46.7277 25.9942C46.6458 25.9942 46.5625 25.9783 46.4824 25.9447C46.1582 25.8091 46.0054 25.4364 46.141 25.1122C46.2173 24.93 46.2872 24.7434 46.3489 24.558C46.4597 24.2247 46.8198 24.0441 47.1534 24.155C47.4868 24.2658 47.6672 24.626 47.5563 24.9594C47.4847 25.1752 47.4033 25.3917 47.3148 25.6034C47.2129 25.8472 46.9765 25.9942 46.7277 25.9942Z" fill="black"/>
<path d="M21.7224 8.83026C21.7197 8.83026 21.7171 8.83026 21.7143 8.83012C21.6112 8.82893 21.5077 8.82827 21.4039 8.82827C21.0526 8.82827 20.7677 8.5434 20.7677 8.19206C20.7677 7.84072 21.0526 7.55585 21.4039 7.55585C21.513 7.55585 21.6217 7.55651 21.7302 7.55784C22.0816 7.56222 22.3628 7.85053 22.3585 8.20201C22.3541 8.55056 22.07 8.83026 21.7224 8.83026Z" fill="black"/>
<path d="M27.3438 29.2038C27.029 29.2038 26.7554 28.9701 26.7137 28.6496C26.6684 28.3011 26.9141 27.9819 27.2625 27.9365C27.467 27.9099 27.673 27.8795 27.8748 27.8463C28.2221 27.7895 28.549 28.024 28.606 28.3707C28.6632 28.7174 28.4284 29.0448 28.0817 29.1019C27.8657 29.1374 27.6453 29.1699 27.4268 29.1985C27.3989 29.2021 27.3712 29.2038 27.3438 29.2038ZM30.1624 28.6127C29.8876 28.6127 29.6341 28.4333 29.5523 28.1563C29.453 27.8192 29.6455 27.4654 29.9825 27.366C30.1799 27.3078 30.3779 27.2453 30.5708 27.1805C30.9038 27.0685 31.2646 27.2479 31.3766 27.5809C31.4886 27.914 31.3092 28.2747 30.9761 28.3867C30.7684 28.4565 30.5553 28.5238 30.3427 28.5865C30.2826 28.6043 30.222 28.6127 30.1624 28.6127ZM32.8419 27.5595C32.6093 27.5595 32.3854 27.4315 32.2734 27.2097C32.1151 26.896 32.241 26.5134 32.5548 26.355C32.7371 26.263 32.9185 26.1663 33.094 26.0673C33.4004 25.8946 33.7882 26.0031 33.9607 26.3092C34.1333 26.6153 34.025 27.0034 33.7188 27.1759C33.5263 27.2844 33.3275 27.3904 33.1281 27.4913C33.0362 27.5374 32.9382 27.5595 32.8419 27.5595ZM35.2538 25.9931C35.0715 25.9931 34.8903 25.9151 34.7645 25.764C34.5396 25.494 34.5763 25.0928 34.8465 24.868C35.0021 24.7385 35.1538 24.6044 35.2975 24.4693C35.5537 24.2286 35.9562 24.2412 36.1969 24.4972C36.4376 24.7532 36.4251 25.1559 36.169 25.3966C36.0068 25.5492 35.8356 25.7004 35.6606 25.8461C35.5416 25.9448 35.3974 25.9931 35.2538 25.9931ZM37.1689 23.8562C37.0518 23.8562 36.9331 23.8238 36.8271 23.756C36.531 23.5669 36.4442 23.1735 36.6333 22.8774C36.7393 22.7114 36.8385 22.5408 36.9282 22.3704C37.0918 22.0595 37.4765 21.9401 37.7876 22.1037C38.0985 22.2673 38.2179 22.6521 38.0543 22.9631C37.9482 23.1648 37.8309 23.3663 37.7058 23.5623C37.5844 23.7524 37.3788 23.8562 37.1689 23.8562ZM38.1984 21.1889C38.1664 21.1889 38.1342 21.1865 38.1017 21.1814C37.7543 21.1285 37.5156 20.8038 37.5687 20.4565C37.5976 20.267 37.617 20.0745 37.6265 19.8839C37.6441 19.5329 37.9434 19.2634 38.2935 19.28C38.6445 19.2974 38.9149 19.596 38.8975 19.947C38.886 20.1805 38.8621 20.4164 38.8267 20.6485C38.7786 20.9633 38.5075 21.1889 38.1984 21.1889ZM38.0344 18.3316C37.749 18.3316 37.4896 18.1383 37.4174 17.8489C37.3702 17.6593 37.3147 17.4685 37.2525 17.2818C37.1413 16.9485 37.3215 16.5881 37.6548 16.4769C37.9877 16.3656 38.3485 16.5458 38.4597 16.8792C38.5322 17.097 38.5971 17.3197 38.6523 17.5413C38.7372 17.8823 38.5297 18.2275 38.1887 18.3125C38.137 18.3255 38.0854 18.3316 38.0344 18.3316ZM36.8857 15.7043C36.6759 15.7043 36.4706 15.6008 36.3492 15.4111C36.2431 15.2453 36.1288 15.0789 36.0097 14.9163C35.8019 14.6331 35.8633 14.2348 36.1467 14.027C36.43 13.8192 36.8283 13.8805 37.0361 14.164C37.1709 14.3479 37.3004 14.5366 37.421 14.7248C37.6105 15.0206 37.5242 15.4142 37.2284 15.6038C37.122 15.6718 37.0031 15.7043 36.8857 15.7043ZM35.0277 13.5115C34.8731 13.5115 34.7182 13.4555 34.5957 13.3422C34.4484 13.2059 34.2945 13.0702 34.1382 12.939C33.8691 12.7129 33.8344 12.3115 34.0603 12.0426C34.2863 11.7736 34.6876 11.7388 34.9567 11.9647C35.1284 12.1091 35.2977 12.2583 35.4599 12.4084C35.7178 12.6471 35.7333 13.0496 35.4946 13.3074C35.3695 13.4429 35.1989 13.5115 35.0277 13.5115ZM32.7271 11.7827C32.6137 11.7827 32.4988 11.7524 32.395 11.6886C32.2231 11.5831 32.0442 11.4782 31.8636 11.3765C31.5573 11.2043 31.4486 10.8163 31.621 10.5101C31.7931 10.2039 32.1812 10.0952 32.4874 10.2673C32.682 10.3768 32.8748 10.4901 33.0606 10.6041C33.3602 10.7878 33.454 11.1796 33.2701 11.4791C33.15 11.6748 32.941 11.7827 32.7271 11.7827ZM30.158 10.4838C30.0775 10.4838 29.9955 10.4685 29.9164 10.4359C29.7264 10.3579 29.5338 10.2822 29.3388 10.2091C29.0098 10.0857 28.843 9.71907 28.9664 9.39002C29.0898 9.06097 29.4564 8.89405 29.7855 9.01758C29.993 9.09533 30.1978 9.176 30.4002 9.25906C30.7251 9.39254 30.8803 9.76431 30.7469 10.0894C30.6458 10.3352 30.4084 10.4838 30.158 10.4838ZM27.4252 9.57683C27.3725 9.57683 27.3189 9.5702 27.2654 9.5564C27.0656 9.50479 26.8639 9.4557 26.6605 9.40926C26.3179 9.33098 26.1037 8.98972 26.1819 8.64727C26.2602 8.30481 26.6012 8.0908 26.9439 8.16868C27.1592 8.21791 27.3724 8.26979 27.5837 8.32445C27.9239 8.41229 28.1284 8.75938 28.0406 9.09971C27.9667 9.38657 27.7083 9.57683 27.4252 9.57683ZM24.5968 9.03244C24.5696 9.03244 24.542 9.03072 24.5141 9.02713C24.309 9.00047 24.1026 8.97645 23.8946 8.95509C23.545 8.919 23.2909 8.60653 23.3269 8.25705C23.3629 7.90743 23.6756 7.65335 24.0249 7.6893C24.244 7.71186 24.4617 7.7372 24.6779 7.7652C25.0264 7.81044 25.2722 8.12967 25.227 8.4781C25.1854 8.79866 24.9118 9.03244 24.5968 9.03244Z" fill="black"/>
<path d="M0.636211 26.3928C0.28487 26.3928 1.90735e-06 26.1079 1.90735e-06 25.7566C1.90735e-06 25.6414 0.00239018 25.5268 0.00703404 25.4125C0.0214963 25.0615 0.317775 24.7901 0.668983 24.803C1.02006 24.8175 1.29299 25.1139 1.27852 25.4649C1.27454 25.5619 1.27255 25.6591 1.27255 25.7567C1.27255 26.1078 0.987685 26.3928 0.636211 26.3928Z" fill="black"/>
<path d="M1.04739 23.8777C0.980784 23.8777 0.913117 23.8672 0.84651 23.845C0.513081 23.7343 0.332634 23.374 0.443556 23.0406C0.515204 22.8249 0.596538 22.6083 0.685037 22.3967C0.82077 22.0726 1.19347 21.9196 1.51761 22.0553C1.84176 22.1909 1.99461 22.5636 1.859 22.8879C1.78271 23.0701 1.71279 23.2566 1.65109 23.4421C1.56233 23.7088 1.31395 23.8777 1.04739 23.8777ZM30.4819 21.6086C30.2334 21.6086 29.9972 21.4621 29.8949 21.2186C29.8207 21.042 29.7368 20.8649 29.6451 20.6921C29.4806 20.3817 29.5989 19.9965 29.9094 19.832C30.2201 19.6678 30.605 19.7858 30.7696 20.0963C30.8788 20.3024 30.9793 20.5143 31.0681 20.7257C31.2042 21.0497 31.0519 21.4227 30.7279 21.5588C30.6475 21.5925 30.5639 21.6086 30.4819 21.6086ZM2.37779 21.3362C2.24736 21.3362 2.11588 21.2962 2.00257 21.2133C1.71903 21.0058 1.65733 20.6076 1.86484 20.3241C1.9966 20.1442 2.13657 19.9642 2.2812 19.7894C2.50503 19.5186 2.90613 19.4803 3.17693 19.7043C3.44787 19.9282 3.48595 20.3292 3.26198 20.6001C3.13328 20.7557 3.00882 20.9157 2.8918 21.0756C2.76708 21.2458 2.57376 21.3362 2.37779 21.3362ZM4.35262 19.2463C4.17138 19.2463 3.99133 19.1692 3.86542 19.0197C3.63919 18.7507 3.67382 18.3494 3.94264 18.1231C4.11035 17.9821 4.28575 17.8412 4.46421 17.7043C4.74297 17.4903 5.14248 17.5429 5.35636 17.8217C5.57024 18.1006 5.5177 18.5 5.23894 18.7138C5.07547 18.8392 4.91493 18.9682 4.76195 19.097C4.64267 19.1972 4.49725 19.2463 4.35262 19.2463ZM28.8978 19.2204C28.7282 19.2204 28.5592 19.153 28.434 19.0198C28.2998 18.877 28.1571 18.7345 28.0095 18.5964C27.7529 18.3561 27.7398 17.9536 27.9799 17.6971C28.2202 17.4406 28.6228 17.4274 28.8792 17.6675C29.0465 17.8242 29.2088 17.9861 29.3615 18.1485C29.6021 18.4046 29.5895 18.8073 29.3334 19.0479C29.2105 19.1632 29.054 19.2204 28.8978 19.2204ZM6.72418 17.6154C6.5018 17.6154 6.28593 17.4987 6.16904 17.2911C5.99668 16.9849 6.10522 16.5969 6.41145 16.4246C6.60158 16.3175 6.79821 16.2116 6.99564 16.1097C7.30837 15.9485 7.69183 16.0712 7.85277 16.3834C8.01398 16.6958 7.89125 17.0795 7.57905 17.2405C7.39515 17.3354 7.21231 17.434 7.03558 17.5334C6.937 17.5891 6.82979 17.6154 6.72418 17.6154ZM26.665 17.4099C26.5496 17.4099 26.4329 17.3785 26.3278 17.3127C26.1582 17.2065 25.9817 17.1018 25.8034 17.0016C25.497 16.8295 25.3881 16.4417 25.5602 16.1353C25.7323 15.8288 26.1203 15.7202 26.4265 15.8921C26.6226 16.0022 26.8168 16.1174 27.0035 16.2344C27.3013 16.4211 27.3913 16.8137 27.2048 17.1115C27.0842 17.304 26.8769 17.4099 26.665 17.4099ZM9.33668 16.4056C9.07915 16.4056 8.8366 16.248 8.74094 15.9927C8.61755 15.6636 8.78419 15.2969 9.11324 15.1735C9.31797 15.0967 9.52522 15.0226 9.73499 14.9513C10.0675 14.8382 10.429 15.016 10.5422 15.3488C10.6553 15.6815 10.4773 16.043 10.1447 16.156C9.94741 16.223 9.75251 16.2927 9.56012 16.3649C9.48635 16.3926 9.41085 16.4056 9.33668 16.4056ZM24.0837 16.1394C24.0088 16.1394 23.9326 16.1262 23.8584 16.098C23.6684 16.026 23.4733 15.9565 23.2785 15.8912C22.9453 15.7796 22.7657 15.419 22.8772 15.0858C22.9888 14.7525 23.3496 14.573 23.6826 14.6846C23.8929 14.7552 24.1038 14.8303 24.3091 14.908C24.6378 15.0325 24.8033 15.3999 24.6788 15.7284C24.5825 15.9829 24.3405 16.1394 24.0837 16.1394ZM12.0954 15.5802C11.8054 15.5802 11.5432 15.3805 11.4758 15.0857C11.3974 14.7431 11.6115 14.4018 11.954 14.3235C12.1668 14.2747 12.3815 14.2288 12.598 14.1857C12.9422 14.117 13.2776 14.3407 13.3463 14.6854C13.4149 15.0299 13.1912 15.365 12.8466 15.4337C12.642 15.4744 12.4392 15.5179 12.238 15.564C12.1901 15.575 12.1424 15.5802 12.0954 15.5802ZM21.3153 15.351C21.2741 15.351 21.2324 15.347 21.1905 15.3386C20.9906 15.2988 20.7858 15.2617 20.5817 15.2283C20.2349 15.1716 19.9998 14.8445 20.0566 14.4976C20.1134 14.1508 20.4405 13.9149 20.7872 13.9725C21.0056 14.0082 21.225 14.0478 21.4388 14.0906C21.7834 14.1591 22.0073 14.4942 21.9387 14.8387C21.8784 15.1415 21.6127 15.351 21.3153 15.351ZM14.9373 15.1123C14.6153 15.1123 14.339 14.8687 14.3052 14.5414C14.2691 14.1918 14.5232 13.8792 14.8728 13.8431C15.0898 13.8207 15.308 13.801 15.5276 13.7843C15.878 13.759 16.1837 14.02 16.2104 14.3704C16.2371 14.7208 15.9747 15.0265 15.6243 15.0532C15.4162 15.0691 15.2092 15.0877 15.0034 15.109C14.9814 15.1111 14.9592 15.1123 14.9373 15.1123ZM18.4566 15.0037C18.4465 15.0037 18.4363 15.0034 18.426 15.003C18.2206 14.9933 18.0141 14.9868 17.8062 14.9836C17.4548 14.9782 17.1745 14.6888 17.1799 14.3376C17.1855 13.9861 17.4825 13.7072 17.8259 13.7113C18.0474 13.7148 18.2675 13.7217 18.4863 13.732C18.8372 13.7486 19.1083 14.0466 19.0918 14.3977C19.0755 14.7382 18.7941 15.0037 18.4566 15.0037Z" fill="black"/>
<path d="M26.5961 40.4443C26.4869 40.4443 26.3779 40.4437 26.2694 40.4422C25.918 40.4376 25.6369 40.149 25.6415 39.7976C25.6462 39.4491 25.9301 39.1698 26.2776 39.1698C26.2805 39.1698 26.2833 39.1698 26.2861 39.1699C26.3891 39.1713 26.4924 39.1719 26.5961 39.1719C26.9474 39.1719 27.2323 39.4568 27.2323 39.8081C27.2323 40.1595 26.9474 40.4443 26.5961 40.4443Z" fill="black"/>
<path d="M24.0409 40.3142C24.0191 40.3142 23.9971 40.313 23.9749 40.3107C23.7559 40.2882 23.5381 40.2628 23.322 40.2348C22.9734 40.1896 22.7277 39.8704 22.7728 39.5219C22.8181 39.1735 23.1369 38.9281 23.4857 38.9728C23.6909 38.9994 23.8974 39.0235 24.1052 39.0448C24.4548 39.0809 24.7089 39.3934 24.673 39.7429C24.6393 40.0704 24.3629 40.3142 24.0409 40.3142ZM21.1982 39.8474C21.1512 39.8474 21.1036 39.8421 21.0559 39.8312C20.8407 39.782 20.6275 39.7301 20.4161 39.6755C20.0759 39.5876 19.8715 39.2405 19.9593 38.9002C20.0473 38.5599 20.3941 38.3551 20.7346 38.4434C20.9344 38.495 21.1361 38.5441 21.3395 38.5905C21.6821 38.6688 21.8963 39.0101 21.818 39.3525C21.7505 39.6476 21.4883 39.8474 21.1982 39.8474ZM18.4379 39.0231C18.3637 39.0231 18.2882 39.0101 18.2147 38.9825C18.0072 38.9047 17.8023 38.8242 17.6 38.741C17.275 38.6075 17.1198 38.2357 17.2533 37.9107C17.3867 37.5856 17.7584 37.4305 18.0836 37.564C18.2736 37.6421 18.4662 37.7177 18.6612 37.7908C18.9902 37.9142 19.157 38.2808 19.0336 38.6099C18.9379 38.8654 18.6954 39.0231 18.4379 39.0231ZM15.8238 37.8142C15.7181 37.8142 15.6111 37.7879 15.5125 37.7325C15.3178 37.623 15.1251 37.5097 14.9393 37.3957C14.6397 37.212 14.5459 36.8201 14.7298 36.5207C14.9137 36.2211 15.3055 36.1274 15.6048 36.3112C15.7768 36.4167 15.9556 36.5216 16.1362 36.6232C16.4426 36.7955 16.5512 37.1834 16.3789 37.4897C16.2623 37.6974 16.0463 37.8142 15.8238 37.8142ZM13.4521 36.1843C13.3076 36.1843 13.1624 36.1354 13.043 36.0352C12.8713 35.8908 12.702 35.7416 12.5399 35.5915C12.2819 35.3528 12.2664 34.9503 12.5051 34.6925C12.7438 34.4344 13.1464 34.419 13.4042 34.6577C13.5514 34.794 13.7054 34.9297 13.8617 35.0609C14.1307 35.287 14.1655 35.6884 13.9395 35.9573C13.8138 36.1072 13.6336 36.1843 13.4521 36.1843ZM11.4776 34.0961C11.2818 34.0961 11.0886 34.006 10.9639 33.8359C10.8291 33.652 10.6996 33.4633 10.579 33.2752C10.3895 32.9793 10.4758 32.5857 10.7716 32.3961C11.0676 32.2065 11.461 32.2929 11.6506 32.5888C11.7568 32.7546 11.871 32.921 11.9902 33.0836C12.198 33.3668 12.1365 33.7651 11.8531 33.9729C11.7398 34.056 11.6082 34.0961 11.4776 34.0961ZM10.1437 31.5557C9.87723 31.5557 9.62898 31.3872 9.54021 31.1205C9.46764 30.9028 9.40276 30.68 9.34756 30.4585C9.26264 30.1175 9.47016 29.7722 9.81115 29.6873C10.1521 29.6021 10.4974 29.81 10.5823 30.1509C10.6295 30.3405 10.685 30.5313 10.7472 30.718C10.8584 31.0513 10.6782 31.4116 10.3449 31.5228C10.2783 31.5451 10.2104 31.5557 10.1437 31.5557ZM9.73857 28.7206C9.72796 28.7206 9.71721 28.7203 9.70646 28.7198C9.35552 28.7024 9.08512 28.4037 9.1025 28.0528C9.11404 27.8193 9.13792 27.5834 9.17335 27.3513C9.22629 27.004 9.55109 26.7651 9.89832 26.8183C10.2457 26.8713 10.4844 27.1959 10.4313 27.5433C10.4024 27.7328 10.383 27.9253 10.3735 28.1158C10.3565 28.4562 10.0753 28.7206 9.73857 28.7206ZM10.5083 25.9696C10.4084 25.9696 10.307 25.9459 10.2124 25.8962C9.90151 25.7326 9.78209 25.3478 9.94569 25.0368C10.0518 24.8351 10.1691 24.6336 10.2942 24.4376C10.4833 24.1416 10.877 24.0547 11.1729 24.2438C11.469 24.4328 11.5558 24.8262 11.3667 25.1224C11.2607 25.2884 11.1615 25.459 11.0718 25.6294C10.9579 25.8459 10.7369 25.9696 10.5083 25.9696ZM12.2668 23.7035C12.0974 23.7035 11.9282 23.6362 11.8031 23.503C11.5624 23.2469 11.5749 22.8442 11.831 22.6036C11.9932 22.451 12.1644 22.2997 12.3394 22.154C12.6093 21.9293 13.0106 21.9659 13.2354 22.236C13.4603 22.506 13.4235 22.9073 13.1534 23.132C12.9978 23.2615 12.8461 23.3957 12.7024 23.5307C12.5797 23.6463 12.423 23.7035 12.2668 23.7035ZM14.5942 22.0147C14.372 22.0147 14.1562 21.8981 14.0393 21.6908C13.8667 21.3846 13.975 20.9967 14.2812 20.8242C14.4737 20.7156 14.6725 20.6096 14.8719 20.5088C15.1858 20.3502 15.5682 20.4764 15.7266 20.7902C15.8849 21.1039 15.759 21.4865 15.4452 21.6449C15.2629 21.7369 15.0815 21.8336 14.906 21.9326C14.8071 21.9883 14.6999 22.0147 14.5942 22.0147ZM17.2265 20.8528C16.9607 20.8528 16.7127 20.685 16.6234 20.4191C16.5114 20.0861 16.6908 19.7253 17.0239 19.6133C17.2316 19.5435 17.4447 19.4763 17.6573 19.4135C17.994 19.314 18.348 19.5066 18.4475 19.8437C18.5469 20.1807 18.3544 20.5345 18.0174 20.6339C17.82 20.6922 17.622 20.7546 17.4291 20.8194C17.3619 20.8421 17.2936 20.8528 17.2265 20.8528ZM20.0209 20.1622C19.7149 20.1622 19.4452 19.941 19.3938 19.6294C19.3366 19.2827 19.5715 18.9552 19.9182 18.8982C20.1342 18.8626 20.3546 18.8301 20.5731 18.8016C20.921 18.7573 21.2408 19.0021 21.2861 19.3505C21.3315 19.6989 21.0858 20.0181 20.7374 20.0635C20.5329 20.0902 20.3268 20.1206 20.125 20.1537C20.0901 20.1594 20.0552 20.1622 20.0209 20.1622Z" fill="black"/>
<path d="M38.9465 12.3975C38.8195 12.3975 38.6915 12.3596 38.58 12.2809C38.4973 12.2225 38.4137 12.1647 38.3288 12.1074C38.0376 11.9106 37.961 11.5151 38.1577 11.224C38.3544 10.9326 38.7501 10.8563 39.0411 11.0528C39.1333 11.1152 39.2243 11.1781 39.3141 11.2415C39.6012 11.4442 39.6695 11.8412 39.4667 12.1282C39.3428 12.3037 39.1462 12.3975 38.9465 12.3975Z" fill="black"/>
<path d="M30.1572 31.0028C29.8207 31.0028 29.5396 30.7388 29.5223 30.3988C29.5044 30.0479 29.7744 29.749 30.1254 29.7312C30.3292 29.7208 30.5327 29.7073 30.7357 29.6904C31.0852 29.6611 31.3933 29.922 31.4222 30.2721C31.4511 30.6223 31.1907 30.9297 30.8405 30.9586C30.6243 30.9765 30.4073 30.991 30.19 31.002C30.1791 31.0025 30.1681 31.0028 30.1572 31.0028ZM27.9483 30.9926C27.9355 30.9926 27.9226 30.9922 27.9097 30.9914C27.6925 30.9784 27.4756 30.9619 27.2592 30.942C26.9093 30.9098 26.6518 30.5998 26.6842 30.25C26.7164 29.9 27.0278 29.6426 27.3762 29.6749C27.579 29.6936 27.7822 29.709 27.9858 29.7212C28.3366 29.7422 28.6038 30.0435 28.5828 30.3943C28.5627 30.7321 28.2823 30.9926 27.9483 30.9926ZM32.9762 30.6542C32.679 30.6542 32.4133 30.4449 32.353 30.1424C32.2841 29.7978 32.5078 29.4626 32.8523 29.3939C33.0509 29.3542 33.2514 29.3106 33.448 29.2641C33.7894 29.1839 34.1326 29.3952 34.2133 29.7373C34.294 30.0792 34.0822 30.4219 33.7402 30.5026C33.5293 30.5523 33.3144 30.5992 33.1014 30.6416C33.0595 30.6503 33.0176 30.6542 32.9762 30.6542ZM25.1327 30.6175C25.0893 30.6175 25.0454 30.613 25.0013 30.6037C24.7872 30.5587 24.5727 30.5098 24.3635 30.4581C24.0224 30.374 23.8141 30.0292 23.8984 29.6879C23.9825 29.3468 24.3269 29.1384 24.6686 29.2227C24.8634 29.2708 25.0633 29.3164 25.263 29.3583C25.6069 29.4305 25.8272 29.7679 25.7548 30.1118C25.6918 30.4116 25.4273 30.6175 25.1327 30.6175ZM35.7082 29.8781C35.4511 29.8781 35.209 29.721 35.1128 29.4661C34.9888 29.1373 35.1549 28.7703 35.4837 28.6462C35.6727 28.5751 35.862 28.4994 36.0466 28.4212C36.37 28.2842 36.7435 28.4354 36.8806 28.759C37.0177 29.0826 36.8663 29.456 36.5428 29.5931C36.3426 29.6778 36.1373 29.7598 35.9326 29.8371C35.8586 29.8648 35.7827 29.8781 35.7082 29.8781ZM22.4083 29.8121C22.3314 29.8121 22.2531 29.7981 22.1771 29.7683C21.9732 29.6887 21.7688 29.6042 21.5695 29.517C21.2476 29.3763 21.1008 29.001 21.2417 28.6791C21.3825 28.3571 21.7575 28.2101 22.0796 28.3513C22.2633 28.4316 22.4519 28.5097 22.6399 28.5831C22.9672 28.7109 23.1289 29.0797 23.0012 29.4072C22.9031 29.6585 22.6627 29.8121 22.4083 29.8121ZM38.2582 28.6316C38.0456 28.6316 37.8376 28.525 37.7172 28.331C37.5318 28.0325 37.6235 27.6402 37.922 27.4548C38.0596 27.3692 38.1952 27.2813 38.3286 27.1913L38.4257 27.1248C38.7152 26.9259 39.1115 26.9994 39.3104 27.289C39.5093 27.5787 39.4358 27.9749 39.1461 28.1738L39.0431 28.2442C38.8946 28.3447 38.7451 28.4415 38.5934 28.5357C38.4888 28.6007 38.3727 28.6316 38.2582 28.6316ZM40.5044 26.8987C40.3364 26.8987 40.1687 26.8326 40.0437 26.7014C39.8013 26.4469 39.8112 26.0442 40.0655 25.8018C40.2115 25.6628 40.3538 25.5201 40.4886 25.3778C40.7304 25.1226 41.1331 25.1119 41.3881 25.3535C41.6432 25.5952 41.654 25.9979 41.4124 26.2529C41.2626 26.411 41.1048 26.5691 40.9432 26.723C40.8201 26.8404 40.662 26.8987 40.5044 26.8987ZM42.3013 24.7071C42.1871 24.7071 42.0716 24.6764 41.9674 24.6119C41.6684 24.4271 41.5759 24.035 41.7608 23.7361C41.8643 23.5686 41.963 23.3966 42.054 23.225C42.2184 22.9145 42.6037 22.7962 42.914 22.9608C43.2245 23.1254 43.3429 23.5104 43.1782 23.8209C43.0742 24.0172 42.9614 24.214 42.8431 24.4053C42.7228 24.6 42.5145 24.7071 42.3013 24.7071ZM43.4013 22.0989C43.3523 22.0989 43.3024 22.0932 43.2526 22.0813C42.9109 21.9996 42.7002 21.6562 42.7819 21.3145C42.8271 21.1256 42.8653 20.9335 42.8956 20.7433C42.9508 20.3964 43.2773 20.1598 43.6239 20.215C43.9709 20.2702 44.2076 20.5963 44.1522 20.9433C44.1169 21.1656 44.0721 21.3901 44.0194 21.6107C43.9496 21.9026 43.6888 22.0989 43.4013 22.0989ZM43.565 19.2771C43.2488 19.2771 42.9748 19.0417 42.9345 18.7199C42.9107 18.5303 42.8785 18.3381 42.8387 18.1485C42.7665 17.8046 42.9866 17.4673 43.3305 17.395C43.6747 17.3228 44.0117 17.543 44.084 17.8868C44.131 18.1104 44.1691 18.3374 44.1971 18.5615C44.2409 18.9102 43.9935 19.2282 43.645 19.2719C43.6179 19.2753 43.5913 19.2771 43.565 19.2771ZM42.7213 16.5776C42.4895 16.5776 42.266 16.4505 42.1536 16.2298C42.0662 16.0581 41.9705 15.8848 41.8689 15.7147C41.6889 15.413 41.7873 15.0224 42.089 14.8422C42.3907 14.6623 42.7815 14.7608 42.9615 15.0623C43.0778 15.2569 43.1875 15.4556 43.2878 15.6526C43.4472 15.9659 43.3224 16.3489 43.0093 16.5083C42.9168 16.5554 42.8182 16.5776 42.7213 16.5776ZM41.0883 14.2614C40.9168 14.2614 40.7458 14.1924 40.6204 14.0564C40.4866 13.9114 40.3463 13.7668 40.2031 13.6265C39.9519 13.3807 39.9477 12.978 40.1937 12.7268C40.4394 12.4757 40.8422 12.4714 41.0934 12.7174C41.2521 12.8728 41.4077 13.0331 41.556 13.194C41.7942 13.4523 41.7779 13.8549 41.5194 14.093C41.3971 14.2057 41.2425 14.2614 41.0883 14.2614Z" fill="black"/>
<path d="M5.64428 14.7004C5.44008 14.7004 5.2396 14.6023 5.11674 14.4204C4.91984 14.1293 4.9964 13.7338 5.2875 13.537C5.37852 13.4755 5.4702 13.4147 5.56281 13.3548C5.85763 13.1637 6.2517 13.2482 6.44263 13.5431C6.63356 13.8381 6.5493 14.232 6.25435 14.4229C6.1689 14.4783 6.08425 14.5344 6.00027 14.5912C5.89094 14.6649 5.76688 14.7004 5.64428 14.7004Z" fill="black"/>
<path d="M31.4636 25.9243C31.311 25.9243 31.1582 25.8699 31.0362 25.7594C30.7759 25.5232 30.7564 25.1209 30.9925 24.8606C31.1286 24.7107 31.2594 24.5556 31.3814 24.3998C31.598 24.1232 31.9979 24.0746 32.2746 24.2912C32.5512 24.5078 32.5999 24.9077 32.3832 25.1844C32.2425 25.3641 32.0916 25.5429 31.935 25.7155C31.8095 25.8539 31.6369 25.9243 31.4636 25.9243ZM33.0102 23.4659C32.9343 23.4659 32.8569 23.4522 32.7817 23.4233C32.4537 23.297 32.2902 22.9288 32.4165 22.6009C32.4873 22.4174 32.5493 22.2297 32.6011 22.0431C32.6953 21.7045 33.0462 21.5067 33.3846 21.6005C33.7232 21.6946 33.9213 22.0454 33.8272 22.384C33.7644 22.6098 33.6893 22.8367 33.604 23.0581C33.5068 23.3108 33.2657 23.4659 33.0102 23.4659ZM33.4217 20.6002C33.096 20.6002 32.8184 20.3513 32.7887 20.0207C32.7713 19.828 32.7439 19.6336 32.7067 19.4428C32.6396 19.0979 32.8647 18.7639 33.2097 18.6968C33.5543 18.6296 33.8886 18.8548 33.9558 19.1998C34.0012 19.4331 34.035 19.6712 34.0561 19.907C34.0875 20.257 33.8292 20.5661 33.4792 20.5976C33.4599 20.5993 33.4408 20.6002 33.4217 20.6002ZM32.5316 17.8424C32.3111 17.8424 32.0966 17.7277 31.9791 17.5228C31.8821 17.3538 31.775 17.1841 31.6608 17.0186C31.4612 16.7294 31.5339 16.333 31.8232 16.1336C32.1124 15.9341 32.5087 16.0069 32.7082 16.296C32.8422 16.4904 32.9682 16.6901 33.0827 16.8894C33.2576 17.1943 33.1524 17.583 32.8476 17.7579C32.7477 17.8152 32.6389 17.8424 32.5316 17.8424ZM30.6707 15.6069C30.5212 15.6069 30.371 15.5545 30.2501 15.4478C30.1003 15.3156 29.942 15.1843 29.7795 15.057C29.5027 14.8404 29.454 14.4406 29.6706 14.1638C29.8872 13.8872 30.287 13.8384 30.5638 14.0549C30.7458 14.1974 30.9235 14.3449 31.0918 14.4935C31.3553 14.726 31.3806 15.1282 31.1481 15.3915C31.0223 15.534 30.8469 15.6069 30.6707 15.6069ZM28.2716 13.949C28.1667 13.949 28.0606 13.9231 27.9627 13.8686C27.7821 13.7682 27.5962 13.6691 27.4099 13.5742C27.0968 13.4146 26.9725 13.0314 27.132 12.7184C27.2916 12.4055 27.6745 12.2811 27.9878 12.4404C28.1876 12.5423 28.3874 12.6487 28.5815 12.7567C28.8887 12.9276 28.9989 13.3151 28.828 13.6221C28.7118 13.8312 28.495 13.949 28.2716 13.949ZM7.89337 13.4209C7.65534 13.4209 7.42726 13.2869 7.3182 13.0577C7.16734 12.7403 7.30241 12.3607 7.61965 12.2098C7.82053 12.1144 8.02619 12.021 8.23105 11.9322C8.5532 11.7928 8.92802 11.9407 9.06774 12.2632C9.20745 12.5856 9.05925 12.9603 8.73683 13.0998C8.54563 13.1826 8.35364 13.2698 8.16603 13.359C8.0778 13.4012 7.98479 13.4209 7.89337 13.4209ZM25.6165 12.7372C25.5435 12.7372 25.4693 12.7246 25.3969 12.698C25.2005 12.6258 25.0024 12.5565 24.8027 12.4903C24.4692 12.3795 24.2887 12.0194 24.3994 11.6859C24.5102 11.3523 24.8703 11.1721 25.2038 11.2825C25.4162 11.3531 25.6289 11.4275 25.8362 11.5037C26.166 11.625 26.3349 11.9906 26.2137 12.3205C26.1191 12.5779 25.8756 12.7372 25.6165 12.7372ZM10.6153 12.3698C10.3429 12.3698 10.091 12.1936 10.0071 11.9196C9.90429 11.5837 10.0934 11.2278 10.4293 11.1251C10.6417 11.0601 10.8558 10.9982 11.0711 10.9393C11.4098 10.8464 11.76 11.0461 11.8527 11.3851C11.9453 11.7241 11.7459 12.074 11.4069 12.1667C11.2038 12.2223 11.002 12.2807 10.8016 12.342C10.7397 12.3609 10.677 12.3698 10.6153 12.3698ZM22.8134 11.921C22.7679 11.921 22.7219 11.9161 22.6757 11.9058C22.4704 11.8606 22.2643 11.8181 22.057 11.7785C21.7119 11.7124 21.4857 11.3791 21.5518 11.034C21.6178 10.6889 21.9517 10.4632 22.2962 10.5287C22.5152 10.5707 22.7332 10.6155 22.9501 10.6634C23.2932 10.7392 23.5099 11.0788 23.4341 11.4218C23.3686 11.7186 23.1053 11.921 22.8134 11.921ZM13.4564 11.7007C13.1518 11.7007 12.8826 11.4813 12.8299 11.1707C12.7711 10.8242 13.0044 10.4957 13.351 10.4371C13.5696 10.4 13.7893 10.3658 14.0096 10.3346C14.3575 10.2855 14.6795 10.5274 14.7287 10.8754C14.778 11.2233 14.5359 11.5453 14.1879 11.5946C13.9792 11.6242 13.771 11.6565 13.5637 11.6917C13.5276 11.6978 13.4917 11.7007 13.4564 11.7007ZM19.9283 11.4695C19.9081 11.4695 19.8878 11.4684 19.8674 11.4665C19.6576 11.4466 19.4473 11.4295 19.2367 11.4151C18.8862 11.391 18.6215 11.0873 18.6455 10.7367C18.6695 10.3861 18.9719 10.121 19.3239 10.1454C19.5456 10.1607 19.7668 10.1787 19.9877 10.1997C20.3376 10.2329 20.5942 10.5433 20.561 10.8932C20.5297 11.2225 20.2525 11.4695 19.9283 11.4695ZM16.3597 11.3871C16.0224 11.3871 15.7412 11.1221 15.7248 10.7816C15.7077 10.4307 15.9785 10.1323 16.3294 10.1153C16.5509 10.1046 16.7727 10.0967 16.9947 10.0917C17.3457 10.0845 17.6373 10.3621 17.6452 10.7134C17.6532 11.0648 17.3748 11.356 17.0235 11.364C16.8126 11.3688 16.6018 11.3762 16.3911 11.3864C16.3805 11.3868 16.37 11.3871 16.3597 11.3871Z" fill="black"/>
<path d="M9.31439 37.0563C9.19166 37.0563 9.06773 37.0209 8.95854 36.947C8.86646 36.8847 8.77557 36.8218 8.68601 36.7585C8.39889 36.5559 8.33056 36.1588 8.53329 35.8718C8.73603 35.5848 9.13288 35.5164 9.42 35.7191C9.50267 35.7775 9.58639 35.8355 9.67144 35.8929C9.96254 36.0898 10.0388 36.4854 9.84207 36.7765C9.71907 36.9582 9.51859 37.0563 9.31439 37.0563Z" fill="black"/>
<path d="M7.35176 35.4644C7.19122 35.4644 7.03054 35.404 6.90675 35.2827C6.7478 35.1271 6.59216 34.9666 6.44396 34.8055C6.20606 34.5469 6.22277 34.1443 6.4815 33.9064C6.74023 33.6685 7.14279 33.6855 7.38056 33.944C7.5139 34.0889 7.65401 34.2334 7.79704 34.3736C8.04821 34.6195 8.05246 35.0221 7.80646 35.2733C7.68188 35.4006 7.51682 35.4644 7.35176 35.4644ZM5.58948 33.2449C5.37215 33.2449 5.16053 33.1336 5.04164 32.9331C4.92661 32.7391 4.81741 32.5402 4.71724 32.3418C4.55868 32.0282 4.68446 31.6455 4.99812 31.487C5.31138 31.3284 5.69444 31.4541 5.85299 31.7679C5.94043 31.9407 6.03569 32.1143 6.13627 32.2839C6.31552 32.5861 6.21574 32.9765 5.91363 33.1557C5.81159 33.2161 5.69988 33.2449 5.58948 33.2449ZM4.54661 30.6137C4.25245 30.6137 3.98828 30.4084 3.92473 30.1092C3.87763 29.8866 3.83888 29.6603 3.80983 29.4366C3.76458 29.0881 4.01031 28.769 4.35873 28.7236C4.70927 28.6793 5.02638 28.9242 5.07176 29.2725C5.09644 29.4629 5.12934 29.6556 5.16968 29.8453C5.24252 30.1891 5.02293 30.5269 4.67916 30.5997C4.63471 30.6092 4.59026 30.6137 4.54661 30.6137ZM4.46793 27.7881C4.43555 27.7881 4.40278 27.7856 4.36974 27.7805C4.02251 27.7268 3.78462 27.4017 3.83835 27.0543C3.87285 26.8317 3.9169 26.6065 3.96944 26.3854C4.05051 26.0434 4.39376 25.8321 4.73528 25.913C5.0772 25.9941 5.2887 26.3369 5.20763 26.6789C5.16291 26.8675 5.12536 27.0594 5.09591 27.2491C5.04721 27.5633 4.77628 27.7881 4.46793 27.7881ZM5.37335 25.1086C5.27238 25.1086 5.16995 25.0844 5.07468 25.0336C4.7646 24.8683 4.64718 24.483 4.8125 24.1729C4.91692 23.9769 5.03023 23.7806 5.14898 23.5892C5.33447 23.291 5.72668 23.1994 6.02534 23.3848C6.32375 23.5703 6.4153 23.9626 6.22981 24.2611C6.12578 24.4284 6.02667 24.6003 5.93539 24.7716C5.82075 24.9861 5.60076 25.1086 5.37335 25.1086ZM7.0454 22.8201C6.88791 22.8201 6.73015 22.762 6.60702 22.6448C6.3524 22.4027 6.34219 22 6.58446 21.7453C6.73559 21.5865 6.89375 21.4285 7.05469 21.2759C7.30957 21.0342 7.71226 21.0447 7.95414 21.2998C8.19588 21.5548 8.18527 21.9575 7.93026 22.1993C7.7851 22.3368 7.6426 22.4792 7.50647 22.6222C7.38135 22.7537 7.21351 22.8201 7.0454 22.8201ZM9.21236 20.9884C9.01015 20.9884 8.81126 20.8922 8.68774 20.713C8.48845 20.4236 8.56156 20.0274 8.85093 19.8281L8.95894 19.7543C9.10475 19.6557 9.25336 19.5594 9.40435 19.4656C9.70288 19.2803 10.0951 19.3719 10.2806 19.6705C10.4661 19.969 10.3744 20.3612 10.0759 20.5467C9.93892 20.6318 9.57259 20.8763 9.57259 20.8763C9.46246 20.952 9.33681 20.9884 9.21236 20.9884ZM26.1727 19.7011C26.0875 19.7011 26.0008 19.6839 25.9178 19.6475C25.7351 19.5675 25.5465 19.4896 25.3577 19.4161C25.0303 19.2885 24.8684 18.9196 24.9959 18.5922C25.1237 18.2646 25.4928 18.103 25.8199 18.2303C26.0249 18.3102 26.2295 18.3949 26.4281 18.4818C26.75 18.6227 26.8967 18.9979 26.7558 19.3198C26.6512 19.5588 26.4177 19.7011 26.1727 19.7011ZM11.7032 19.6303C11.4553 19.6303 11.2198 19.4846 11.117 19.2422C10.9799 18.9186 11.1311 18.5452 11.4545 18.408C11.6534 18.3238 11.8587 18.2416 12.0646 18.1639C12.3933 18.0395 12.7604 18.2055 12.8846 18.5345C13.0086 18.8632 12.8428 19.2302 12.514 19.3544C12.3237 19.4262 12.1344 19.502 11.9512 19.5797C11.8701 19.6141 11.786 19.6303 11.7032 19.6303ZM23.4817 18.7953C23.4315 18.7953 23.3801 18.7892 23.329 18.7767C23.1336 18.7286 22.9335 18.6829 22.7344 18.6411C22.3904 18.5689 22.1702 18.2315 22.2425 17.8876C22.3147 17.5437 22.6521 17.3237 22.996 17.3958C23.2094 17.4406 23.4239 17.4896 23.6335 17.5412C23.9748 17.6252 24.1831 17.97 24.0991 18.3111C24.0276 18.6011 23.7678 18.7953 23.4817 18.7953ZM14.4026 18.7535C14.1142 18.7535 13.853 18.5561 13.7839 18.2633C13.7032 17.9213 13.915 17.5786 14.2571 17.4979C14.4671 17.4485 14.682 17.4016 14.8955 17.3589C15.2402 17.2902 15.5752 17.5133 15.6442 17.858C15.7131 18.2026 15.4897 18.5379 15.1451 18.6068C14.9457 18.6466 14.7452 18.6904 14.5491 18.7365C14.5001 18.7478 14.451 18.7535 14.4026 18.7535ZM20.6803 18.3275C20.6607 18.3275 20.641 18.3265 20.6213 18.3248C20.4185 18.3061 20.2151 18.2907 20.0115 18.2785C19.6606 18.2575 19.3934 17.9562 19.4144 17.6054C19.4354 17.2546 19.7385 16.9884 20.0875 17.0083C20.3047 17.0213 20.5215 17.0377 20.7378 17.0576C21.0876 17.0898 21.3453 17.3995 21.3131 17.7495C21.2828 18.0795 21.0054 18.3275 20.6803 18.3275ZM17.2083 18.3119C16.8806 18.3119 16.6023 18.0605 16.5749 17.728C16.5459 17.3779 16.8064 17.0704 17.1565 17.0415C17.3729 17.0236 17.5899 17.0091 17.8072 16.9981C18.1562 16.9792 18.457 17.2505 18.4747 17.6016C18.4924 17.9525 18.2224 18.2513 17.8713 18.2691C17.6676 18.2793 17.4641 18.293 17.2611 18.3097C17.2434 18.3113 17.2258 18.3119 17.2083 18.3119Z" fill="black"/>
<path d="M42.0922 34.7475C41.8838 34.7475 41.6794 34.6451 41.5576 34.4572C41.3666 34.1622 41.4507 33.7683 41.7457 33.5772C41.831 33.5219 41.9158 33.4659 41.9997 33.4091C42.2907 33.2121 42.6864 33.2884 42.8833 33.5795C43.0803 33.8705 43.004 34.2661 42.7129 34.463C42.622 34.5246 42.5302 34.5853 42.4377 34.6453C42.3308 34.7144 42.2107 34.7475 42.0922 34.7475Z" fill="black"/>
<path d="M30.9897 37.9069C30.6455 37.9069 30.3624 37.6323 30.3539 37.2862C30.3454 36.9349 30.6232 36.6433 30.9744 36.6346C31.1854 36.6295 31.3965 36.6218 31.6072 36.6113C31.9568 36.5932 32.2569 36.8643 32.2742 37.2152C32.2915 37.5662 32.0211 37.8649 31.6702 37.8822C31.4488 37.8932 31.2272 37.9015 31.0055 37.9069C31.0003 37.9068 30.995 37.9069 30.9897 37.9069ZM28.7194 37.8592C28.705 37.8592 28.6906 37.8586 28.6761 37.8577C28.4543 37.8428 28.2327 37.8249 28.0116 37.8041C27.6618 37.771 27.405 37.4606 27.438 37.1107C27.4711 36.7608 27.7834 36.5057 28.1314 36.5371C28.3409 36.5569 28.5511 36.5739 28.7615 36.5879C29.1121 36.6115 29.3773 36.9149 29.3538 37.2654C29.331 37.6016 29.0513 37.8592 28.7194 37.8592ZM33.8995 37.6681C33.5876 37.6681 33.3153 37.4387 33.2703 37.1209C33.2211 36.773 33.4631 36.451 33.8111 36.4018C34.02 36.3722 34.2282 36.3399 34.4357 36.3048C34.7817 36.2464 35.1105 36.4795 35.1691 36.826C35.2278 37.1724 34.9944 37.5008 34.648 37.5594C34.4293 37.5964 34.2097 37.6305 33.9896 37.6616C33.9592 37.666 33.9291 37.6681 33.8995 37.6681ZM25.8229 37.4874C25.7831 37.4874 25.7428 37.4837 25.7023 37.4758C25.4834 37.4339 25.2654 37.3889 25.0486 37.3409C24.7055 37.265 24.4889 36.9253 24.5648 36.5822C24.6407 36.2391 24.9808 36.0231 25.3236 36.0985C25.5288 36.1438 25.7349 36.1864 25.9421 36.2261C26.2872 36.2923 26.5133 36.6256 26.447 36.9708C26.3887 37.2755 26.1221 37.4874 25.8229 37.4874ZM36.7599 37.0816C36.48 37.0816 36.2236 36.8956 36.1465 36.6126C36.054 36.2736 36.254 35.9239 36.593 35.8314C36.7961 35.7759 36.9979 35.7177 37.1982 35.6565C37.5346 35.5541 37.8899 35.7433 37.9925 36.0794C38.095 36.4156 37.9057 36.771 37.5696 36.8736C37.3571 36.9385 37.1431 37.0003 36.9276 37.0589C36.8716 37.0743 36.8152 37.0816 36.7599 37.0816ZM22.9961 36.753C22.9295 36.753 22.8617 36.7424 22.7949 36.7202C22.5824 36.6495 22.3717 36.5756 22.1629 36.4985C21.8332 36.377 21.6645 36.0112 21.7861 35.6814C21.9076 35.3519 22.2734 35.1831 22.6031 35.3046C22.7995 35.3771 22.9976 35.4463 23.1973 35.5129C23.5306 35.624 23.7109 35.9844 23.5997 36.3178C23.5108 36.5843 23.2626 36.753 22.9961 36.753ZM39.5163 36.1201C39.2703 36.1201 39.036 35.9765 38.9321 35.7364C38.7926 35.4138 38.9409 35.0393 39.2634 34.8997C39.4549 34.8168 39.647 34.7297 39.8342 34.6407C40.1515 34.4898 40.5312 34.6249 40.6819 34.9424C40.8328 35.2598 40.6977 35.6394 40.3802 35.7901C40.1796 35.8855 39.9738 35.9788 39.7687 36.0675C39.6864 36.1032 39.6006 36.1201 39.5163 36.1201ZM20.3008 35.6301C20.2036 35.6301 20.1049 35.6077 20.0123 35.5604C19.8115 35.458 19.6117 35.3515 19.4184 35.2436C19.1115 35.0724 19.0015 34.6849 19.1726 34.378C19.3438 34.0711 19.7316 33.9612 20.0383 34.1323C20.218 34.2326 20.4038 34.3317 20.5905 34.4269C20.9035 34.5867 21.0278 34.9699 20.8681 35.2829C20.7555 35.5033 20.5324 35.6301 20.3008 35.6301ZM17.8284 34.0808C17.6914 34.0808 17.5533 34.0367 17.4369 33.9456C17.255 33.8033 17.0773 33.6558 16.9087 33.5069C16.6452 33.2745 16.62 32.8723 16.8524 32.6089C17.0849 32.3453 17.4871 32.3202 17.7504 32.5527C17.9004 32.685 18.0586 32.8163 18.2209 32.9433C18.4977 33.1597 18.5465 33.5597 18.33 33.8364C18.2046 33.9969 18.0175 34.0808 17.8284 34.0808ZM15.8165 31.9795C15.6144 31.9795 15.4156 31.8834 15.2922 31.7044C15.1585 31.5105 15.0324 31.3109 14.9178 31.1114C14.7428 30.8067 14.8479 30.4178 15.1525 30.2427C15.4572 30.0677 15.846 30.1726 16.0212 30.4774C16.1184 30.6468 16.2256 30.8165 16.3398 30.9817C16.5393 31.271 16.4666 31.6673 16.1774 31.8667C16.0668 31.943 15.941 31.9795 15.8165 31.9795ZM14.6681 29.3158C14.3697 29.3158 14.1034 29.1048 14.0442 28.801C13.9989 28.5676 13.965 28.3296 13.9439 28.0938C13.9125 27.7438 14.1708 27.4346 14.5208 27.4032C14.8703 27.3711 15.18 27.6301 15.2114 27.9801C15.2288 28.1727 15.2563 28.3671 15.2934 28.5579C15.3606 28.9029 15.1354 29.2368 14.7904 29.304C14.7494 29.3119 14.7084 29.3158 14.6681 29.3158ZM14.7859 26.4237C14.7295 26.4237 14.6723 26.4161 14.6154 26.4004C14.2768 26.3064 14.0785 25.9557 14.1724 25.6171C14.235 25.3914 14.3101 25.1644 14.3956 24.9426C14.5218 24.6147 14.8897 24.451 15.2179 24.5774C15.5459 24.7038 15.7094 25.0719 15.5831 25.3998C15.5124 25.5836 15.4503 25.7712 15.3986 25.9573C15.3206 26.239 15.0647 26.4237 14.7859 26.4237ZM16.1167 23.8448C15.9795 23.8448 15.8413 23.8006 15.7249 23.7094C15.4483 23.4928 15.3996 23.0929 15.6162 22.8162C15.7568 22.6368 15.9075 22.4583 16.0642 22.2852C16.3001 22.0249 16.7025 22.005 16.9628 22.2411C17.2232 22.477 17.2429 22.8794 17.007 23.1397C16.8706 23.2902 16.7398 23.4453 16.618 23.6008C16.4926 23.7611 16.3057 23.8448 16.1167 23.8448Z" fill="black"/>
<path d="M24.3235 27.9798C23.985 27.9798 23.7035 27.7131 23.6883 27.3716C23.6728 27.0205 23.9448 26.7233 24.2959 26.7078C24.4899 26.6993 24.6844 26.682 24.8741 26.657C25.2225 26.6117 25.5423 26.8556 25.5885 27.204C25.6346 27.5523 25.3897 27.8722 25.0414 27.9184C24.8149 27.9485 24.583 27.9688 24.3521 27.979C24.3424 27.9795 24.3329 27.9798 24.3235 27.9798ZM22.1196 27.7369C22.0634 27.7369 22.0063 27.7293 21.9494 27.7136C21.7216 27.6506 21.4975 27.5759 21.2832 27.4918C20.9561 27.3632 20.7952 26.994 20.9236 26.6669C21.0522 26.3399 21.4215 26.179 21.7485 26.3074C21.9218 26.3754 22.1036 26.4359 22.2889 26.4873C22.6275 26.5811 22.826 26.9315 22.7324 27.2702C22.6545 27.5522 22.3985 27.7369 22.1196 27.7369ZM27.0729 27.2645C26.846 27.2645 26.6264 27.1428 26.5117 26.9288C26.3455 26.6192 26.4619 26.2334 26.7716 26.0675C26.9019 25.9975 27.0275 25.9218 27.1448 25.8423C27.1772 25.8204 27.209 25.7983 27.2401 25.7758C27.5252 25.5706 27.923 25.6351 28.1283 25.9202C28.3336 26.2052 28.269 26.6028 27.9839 26.8084C27.9428 26.8379 27.9008 26.8673 27.8583 26.8961C27.7047 26.9999 27.5415 27.0984 27.373 27.1888C27.2775 27.2402 27.1744 27.2645 27.0729 27.2645ZM19.6951 26.2937C19.5139 26.2937 19.334 26.2167 19.2082 26.0673C19.0384 25.8657 18.8928 25.6512 18.7758 25.4299C18.6114 25.1195 18.7299 24.7343 19.0405 24.57C19.3508 24.4055 19.736 24.524 19.9004 24.8347C19.9752 24.976 20.0698 25.1151 20.1816 25.2476C20.4079 25.5164 20.3734 25.9178 20.1047 26.1442C19.9853 26.2446 19.8398 26.2937 19.6951 26.2937ZM28.8912 25.1639C28.8431 25.1639 28.7943 25.1583 28.7455 25.1469C28.4033 25.0668 28.191 24.7245 28.2712 24.3823C28.3007 24.2558 28.3159 24.1271 28.3159 23.9996C28.3159 23.9749 28.3153 23.9499 28.3141 23.9248C28.2984 23.5737 28.5701 23.2764 28.9212 23.2606C29.2713 23.2444 29.5696 23.5165 29.5854 23.8676C29.5874 23.9116 29.5883 23.9557 29.5883 23.9999C29.5882 24.225 29.5619 24.4513 29.51 24.6726C29.4414 24.9659 29.1799 25.1639 28.8912 25.1639ZM19.2775 23.6247C19.1872 23.6247 19.0957 23.6054 19.0085 23.5647C18.6902 23.4161 18.5526 23.0374 18.7014 22.719C18.8082 22.4904 18.9446 22.268 19.1067 22.0582C19.3215 21.7802 19.721 21.7292 19.9992 21.9438C20.2772 22.1588 20.3284 22.5584 20.1136 22.8364C20.0088 22.972 19.9215 23.1137 19.8544 23.2575C19.7464 23.4888 19.5169 23.6247 19.2775 23.6247ZM27.9465 22.6118C27.796 22.6118 27.6448 22.5587 27.5236 22.4507C27.4089 22.3485 27.2816 22.2499 27.1454 22.1579C26.9964 22.057 26.8354 21.9628 26.6668 21.8779C26.3528 21.7199 26.2267 21.3374 26.3847 21.0234C26.5427 20.7095 26.9254 20.5833 27.2392 20.7414C27.4562 20.8507 27.6645 20.9726 27.8584 21.1037C28.0411 21.2272 28.2133 21.3607 28.3699 21.5002C28.6323 21.7338 28.6557 22.136 28.4219 22.3984C28.2961 22.5397 28.1218 22.6118 27.9465 22.6118ZM21.3913 21.7875C21.1428 21.7875 20.9067 21.6409 20.8045 21.3975C20.6684 21.0735 20.8208 20.7005 21.1448 20.5645C21.357 20.4755 21.5798 20.3956 21.8069 20.3274C22.1436 20.2261 22.4982 20.4172 22.5994 20.7537C22.7005 21.0902 22.5096 21.445 22.1731 21.5462C21.9885 21.6015 21.8084 21.6661 21.6375 21.7378C21.5569 21.7716 21.4735 21.7875 21.3913 21.7875ZM24.825 21.3322C24.8011 21.3322 24.7769 21.3307 24.7526 21.3281C24.5618 21.3064 24.3667 21.2929 24.1731 21.2879C23.8219 21.2788 23.5445 20.9865 23.5537 20.6353C23.5627 20.2841 23.8497 20.0032 24.2062 20.0159C24.4365 20.0218 24.6686 20.0379 24.8959 20.0637C25.2451 20.1034 25.496 20.4185 25.4564 20.7676C25.4196 21.0923 25.1442 21.3322 24.825 21.3322Z" fill="black"/>
</svg>
