<svg width="48" height="48" viewBox="0 0 48 48" fill="none" xmlns="http://www.w3.org/2000/svg">
<path d="M22.8163 15.9465C21.2154 15.9465 19.6683 16.4159 18.3418 17.3039C17.9626 17.5577 17.861 18.0708 18.1148 18.4499C18.3685 18.8291 18.8816 18.9306 19.2607 18.6768C20.3142 17.9715 21.5438 17.5986 22.8162 17.5986C26.3458 17.5986 29.2175 20.4702 29.2175 23.9999C29.2175 25.1731 28.8975 26.3201 28.2923 27.3169C28.0555 27.7069 28.1797 28.2148 28.5697 28.4517C28.7037 28.533 28.8515 28.5718 28.9976 28.5718C29.2766 28.5718 29.5491 28.4304 29.7045 28.1743C30.4668 26.919 30.8696 25.4756 30.8696 23.9999C30.8695 19.5593 27.2569 15.9465 22.8163 15.9465Z" fill="black"/>
<path d="M27.4049 29.642C27.1588 29.2577 26.6477 29.146 26.2638 29.3921C25.2336 30.0523 24.0415 30.4013 22.8163 30.4013C19.2867 30.4013 16.415 27.5297 16.415 24C16.415 22.8827 16.7087 21.7814 17.2646 20.8151C17.4919 20.4196 17.3558 19.9147 16.9603 19.6873C16.5646 19.4598 16.0599 19.596 15.8323 19.9916C15.1327 21.2082 14.7629 22.5944 14.7629 24.0001C14.7629 28.4406 18.3756 32.0534 22.8162 32.0534C24.3581 32.0534 25.8584 31.6142 27.1551 30.7831C27.5392 30.5371 27.6511 30.0261 27.4049 29.642Z" fill="black"/>
<path d="M48 23.5098C48 20.3726 45.7687 17.4529 41.6904 15.2131C42.2838 11.7253 41.6384 8.88129 39.7868 7.02954C39.5094 6.75213 39.2059 6.50219 38.8802 6.27785C38.9007 6.11004 38.9124 5.93951 38.9124 5.76616C38.9124 3.45101 37.0288 1.56738 34.7137 1.56738C32.543 1.56738 30.7518 3.2231 30.5365 5.33791C28.0933 5.90079 25.4638 7.01407 22.8162 8.58579C18.8633 6.23904 14.9501 4.91548 11.6379 4.91548C9.23147 4.91548 7.22869 5.64645 5.84559 7.02944C3.76472 9.11032 3.207 12.4443 4.21903 16.5372C1.47553 18.5519 0 20.9589 0 23.5096C0 26.1283 1.55475 28.5955 4.44056 30.6424C3.14053 35.1099 3.62728 38.7523 5.84559 40.9706C6.123 41.248 6.42656 41.4979 6.75225 41.7223C6.73172 41.8901 6.72 42.0606 6.72 42.234C6.72 44.5491 8.60363 46.4328 10.9188 46.4328C13.0895 46.4328 14.8807 44.777 15.0959 42.6622C17.5391 42.0993 20.1686 40.9861 22.8162 39.4144C26.7692 41.7611 30.6823 43.0847 33.9945 43.0847C36.4009 43.0847 38.4038 42.3537 39.7868 40.9707C41.793 38.9645 42.3834 35.7937 41.5164 31.9011C45.7051 29.6491 48 26.6912 48 23.5098ZM34.7137 3.21926C36.0081 3.21926 37.0793 4.19023 37.2391 5.44188C36.2732 5.09454 35.1833 4.91548 33.9945 4.91548C33.4381 4.91548 32.8644 4.95373 32.2767 5.02685C32.5943 3.98191 33.5663 3.21926 34.7137 3.21926ZM36.8984 7.07323C36.4528 7.81516 35.6405 8.31288 34.7137 8.31288C33.6341 8.31288 32.71 7.63741 32.34 6.68726C32.9098 6.60926 33.463 6.56744 33.9945 6.56744C35.0981 6.56744 36.0682 6.73732 36.8984 7.07323ZM30.7012 7.00357C31.2306 8.71666 32.829 9.96476 34.7137 9.96476C36.2413 9.96476 37.5806 9.14435 38.3153 7.92129C38.4198 8.00951 38.5218 8.10063 38.6185 8.19738C39.9957 9.57438 40.5089 11.7324 40.1415 14.4363C36.4539 12.747 31.8661 11.6951 26.935 11.3959C26.1001 10.7505 25.2583 10.1467 24.4146 9.58807C26.5849 8.37326 28.7208 7.49079 30.7012 7.00357ZM31.4444 15.3719C30.7031 14.6306 29.9461 13.9232 29.1792 13.2487C33.169 13.7018 36.831 14.6789 39.8178 16.109C39.6804 16.6666 39.5118 17.2415 39.3095 17.8341C38.7972 19.3342 38.0979 20.8722 37.2356 22.4152C35.6369 19.9951 33.6808 17.6082 31.4444 15.3719ZM39.3095 30.1658C39.4084 30.4555 39.4987 30.7407 39.5822 31.0221C36.9585 32.2432 33.8322 33.1207 30.4317 33.6094C30.7718 33.2884 31.1098 32.9623 31.4442 32.6279C33.6805 30.3916 35.6367 28.0047 37.2355 25.5844C38.098 27.1278 38.7972 28.6659 39.3095 30.1658ZM26.3128 13.0164C27.669 14.0854 29.0005 15.2643 30.2762 16.54C32.6453 18.9091 34.6837 21.4458 36.2934 24.0001C34.6837 26.5542 32.6453 29.091 30.2762 31.46C29.4099 32.3263 28.5174 33.147 27.6094 33.9203C26.4271 34.0121 25.2214 34.0596 24 34.0596C21.8281 34.0596 19.7049 33.911 17.6775 33.625C16.8884 32.9389 16.1125 32.2161 15.3563 31.4599C12.9871 29.0908 10.9489 26.5541 9.33909 23.9999C10.9489 21.4458 12.9871 18.909 15.3563 16.5399C16.5508 15.3454 17.7946 14.2359 19.0614 13.2216C20.6638 13.0488 22.3173 12.9596 23.9999 12.9596C24.7778 12.9597 25.5494 12.9789 26.3128 13.0164ZM14.1879 32.6281C14.34 32.7801 14.4934 32.9297 14.6467 33.079C12.1916 32.5348 9.93422 31.7728 7.97738 30.8122C7.41534 30.5363 6.88959 30.2489 6.39825 29.9519C6.90291 28.5197 7.57528 27.0546 8.39663 25.5847C9.99553 28.0049 11.9516 30.3918 14.1879 32.6281ZM6.32288 17.834C6.25378 17.6317 6.18975 17.432 6.12825 17.2336C6.69487 16.877 7.31119 16.534 7.97747 16.207C10.2835 15.0751 13.0061 14.2186 15.9788 13.6699C15.374 14.2163 14.7761 14.7835 14.1879 15.3718C11.9516 17.6081 9.99553 19.9951 8.39663 22.4152C7.53431 20.8722 6.83513 19.3341 6.32288 17.834ZM22.8162 10.5409C23.2061 10.7866 23.5959 11.0422 23.9854 11.3077C23.1689 11.3079 22.3588 11.3289 21.5569 11.3692C21.9763 11.0816 22.3962 10.8055 22.8162 10.5409ZM7.01391 8.19757C8.09541 7.11588 9.65119 6.56744 11.6379 6.56744C14.4207 6.56744 17.7771 7.66198 21.2178 9.58826C20.2702 10.2157 19.3249 10.9001 18.3892 11.6366C14.214 12.135 10.3769 13.1888 7.24959 14.7241C6.70003 14.9939 6.18047 15.2755 5.68959 15.5672C5.00062 12.333 5.44988 9.76151 7.01391 8.19757ZM1.65206 23.5096C1.65206 21.645 2.71828 19.8341 4.71506 18.2333C4.73016 18.2782 4.74413 18.3228 4.75959 18.3679C5.38969 20.213 6.28434 22.1089 7.40494 24C6.41231 25.6753 5.59781 27.354 4.98675 28.9982C2.81503 27.3459 1.65206 25.4571 1.65206 23.5096ZM10.9188 44.7807C9.62438 44.7807 8.55319 43.8097 8.39334 42.5581C9.35925 42.9054 10.4492 43.0845 11.6379 43.0845C12.1943 43.0845 12.768 43.0462 13.3557 42.9731C13.0381 44.018 12.0661 44.7807 10.9188 44.7807ZM8.73403 40.9267C9.17963 40.1847 9.99197 39.6871 10.9188 39.6871C11.9983 39.6871 12.9224 40.3625 13.2924 41.3127C12.7226 41.3907 12.1694 41.4325 11.6379 41.4325C10.5344 41.4324 9.56419 41.2626 8.73403 40.9267ZM14.9313 40.9963C14.4019 39.2832 12.8034 38.0351 10.9188 38.0351C9.39113 38.0351 8.05181 38.8555 7.31709 40.0786C7.21266 39.9903 7.11066 39.8992 7.01391 39.8025C5.31375 38.1024 4.93144 35.2115 5.89603 31.5732C6.32578 31.8219 6.77634 32.0629 7.24959 32.2954C10.0159 33.6533 13.3377 34.6346 16.9574 35.1882C18.3551 36.3827 19.784 37.4625 21.2178 38.4119C19.0476 39.6267 16.9116 40.5093 14.9313 40.9963ZM22.8162 37.4591C21.8927 36.8773 20.9687 36.2404 20.0532 35.5504C21.3457 35.6569 22.6645 35.7117 23.9999 35.7117C24.4654 35.7117 24.9286 35.7043 25.3896 35.6912C24.5362 36.327 23.676 36.9173 22.8162 37.4591ZM38.6186 39.8025C37.5369 40.8842 35.9812 41.4326 33.9946 41.4326C31.2117 41.4326 27.8554 40.3381 24.4148 38.4118C25.7146 37.5513 27.0103 36.5845 28.2825 35.5215C32.6325 35.1314 36.6672 34.1483 39.9878 32.6532C40.61 35.7836 40.1468 38.2742 38.6186 39.8025ZM41.0761 30.2586C41.0117 30.0513 40.9449 29.8428 40.8729 29.6319C40.2428 27.7868 39.3481 25.8909 38.2276 23.9999C39.3481 22.1088 40.2428 20.2129 40.8729 18.3679C41.0433 17.869 41.1914 17.3798 41.3195 16.9002C44.5743 18.7908 46.348 21.1053 46.348 23.5096C46.3479 25.9733 44.4863 28.3429 41.0761 30.2586Z" fill="black"/>
</svg>
