<svg width="48" height="48" viewBox="0 0 48 48" fill="none" xmlns="http://www.w3.org/2000/svg">
<path d="M40.2987 7.70122C39.3602 6.72973 38.1588 6.05289 36.8416 5.75351C35.8051 5.49247 34.7063 5.69843 33.8347 6.31712C24.1088 -0.987266 12.9495 -2.105 7.09896 3.73743C1.25726 9.5788 2.36474 20.7304 9.65486 30.46L8.247 31.8678L8.24144 31.8715L8.22883 31.886L4.30575 35.8089L4.30067 35.8123L4.2892 35.8255L0.926837 39.1877L0.923372 39.19C-0.656697 40.7696 -0.162058 43.7395 2.0486 45.9509C3.18632 47.176 4.75582 47.9107 6.42537 47.9998C7.31216 48.0261 8.17206 47.6935 8.81032 47.0773L8.81575 47.0692L12.0931 43.7891C12.108 43.7766 12.1775 43.7152 12.1915 43.7016L17.5335 38.3517C23.0697 42.5007 29.0656 44.6494 34.284 44.6494C38.238 44.6494 41.7443 43.4195 44.2628 40.9009C50.104 35.0513 48.9883 23.8914 41.6834 14.1656C42.938 12.5311 42.3778 9.78114 40.2987 7.70122ZM36.4434 37.2794L29.3948 26.4908L29.871 26.0146L40.6428 33.0567C40.1414 35.138 38.5219 36.7665 36.4434 37.2794ZM14.9542 7.35564L21.9919 18.1227L21.5034 18.6114L10.7174 11.5647C10.9817 10.5535 11.5033 9.62793 12.2314 8.87805C12.9915 8.14298 13.9299 7.61832 14.9542 7.35564ZM26.7868 26.8351C26.2655 27.25 25.5771 27.3902 24.935 27.2123C23.9297 26.9711 23.0144 26.4474 22.2969 25.7029C20.7731 24.1784 20.2574 22.1185 21.1709 21.2047C21.1746 21.201 21.1755 21.196 21.1791 21.1923L22.1078 20.2627C22.1147 20.2572 22.1208 20.2508 22.1275 20.2451C22.1392 20.2351 22.1507 20.2251 22.1619 20.2144L22.1773 20.2005L23.1197 19.2579C23.3901 20.6461 24.084 21.9163 25.1061 22.8938C26.0443 23.8647 27.2451 24.5412 28.5616 24.8407C28.6263 24.8537 28.6886 24.8594 28.7524 24.8698L26.7868 26.8351ZM23.1452 16.962L16.6699 7.05542C20.2033 6.79125 24.7072 8.31449 28.8932 11.2183L23.1452 16.962ZM10.4119 13.2771L20.343 19.7652L14.5769 25.5376C11.6593 21.3352 10.1345 16.8178 10.4119 13.2771ZM19.1786 23.1948C19.4483 24.5844 20.1425 25.8561 21.1654 26.8345C22.1036 27.8054 23.3044 28.4819 24.6209 28.7814C24.6854 28.7943 24.7476 28.8 24.8112 28.8104L21.1678 32.4534C20.1149 31.6421 19.1133 30.7664 18.1687 29.8312C17.233 28.8866 16.3571 27.8845 15.5462 26.8308L19.1786 23.1948ZM27.9211 27.9644L27.9263 27.9601L27.9283 27.9571L28.2388 27.6467L34.734 37.5882C31.192 37.8683 26.6673 36.3425 22.4617 33.4232L27.9211 27.9644ZM40.9442 31.3422L31.0311 24.8615L36.7816 19.1067C39.6858 23.3007 41.2098 27.8096 40.9442 31.3422ZM30.7521 22.8769C30.7471 22.8817 30.7405 22.883 30.7356 22.8879C30.214 23.3086 29.5213 23.4515 28.8758 23.2715C27.8705 23.0303 26.9551 22.5066 26.2377 21.7622C24.7139 20.2381 24.1981 18.1778 25.1116 17.2639C25.1157 17.2598 25.1168 17.2542 25.1208 17.2501L32.6871 9.68995C32.6974 9.75348 32.7028 9.81551 32.7157 9.87983C33.0151 11.197 33.6921 12.3982 34.6638 13.3365C35.6425 14.3591 36.9152 15.0516 38.3053 15.3181L30.7521 22.8769ZM35.9125 7.25933C36.1194 7.26039 36.3256 7.28172 36.5283 7.32301C37.5356 7.55998 38.4524 8.08447 39.1672 8.83273C40.6898 10.3557 41.2056 12.4135 40.2949 13.3286L40.2901 13.3318L40.2854 13.3365C39.3685 14.2387 37.3169 13.7261 35.7953 12.2049C35.0466 11.4903 34.5218 10.5733 34.2848 9.56568C34.1086 8.92583 34.2475 8.24029 34.6591 7.71961L34.6677 7.71096L34.6714 7.70536C35.0093 7.39741 35.456 7.23688 35.9125 7.25933ZM15.0009 38.6243L14.9968 38.627C14.4751 39.0475 13.7825 39.1902 13.137 39.0103C12.1317 38.7692 11.2163 38.2455 10.4989 37.5009C9.75406 36.7837 9.23017 35.8681 8.98924 34.8624C8.81196 34.2214 8.95151 33.5342 9.36481 33.013L10.6505 31.7274C11.4862 32.7594 12.3732 33.7487 13.3082 34.6917C14.2513 35.6269 15.2408 36.514 16.2729 37.3498L15.0009 38.6243ZM11.1014 42.5314L11.0715 42.5575C11.0669 42.5619 11.0606 42.5632 11.0561 42.5677C10.1418 43.4804 8.082 42.9651 6.55822 41.4417C5.81332 40.7244 5.28943 39.8088 5.0485 38.8032C4.87102 38.1617 5.01086 37.4741 5.42476 36.9529L7.39141 34.9863C7.40172 35.0501 7.40718 35.1124 7.42013 35.177C7.71979 36.4935 8.39646 37.6942 9.36744 38.6324C10.3055 39.6035 11.5063 40.2801 12.8229 40.5794C12.8895 40.5927 12.9539 40.5988 13.0197 40.6094L11.1014 42.5314ZM3.18011 44.8194C1.65808 43.297 1.14317 41.2406 2.05227 40.3252L3.45071 38.9269C3.46101 38.9907 3.46648 39.0531 3.47942 39.1177C3.77909 40.4342 4.45576 41.635 5.42674 42.5732C6.40541 43.5953 7.6778 44.2878 9.06757 44.5545L7.67487 45.947L7.67389 45.9485C6.75821 46.8573 4.70227 46.3412 3.18011 44.8194ZM43.1306 39.7698C37.7536 45.1448 27.1644 43.8391 17.9499 36.6632C15.4823 34.7386 13.2611 32.5173 11.3366 30.0496C4.16002 20.8354 2.85425 10.2455 8.23047 4.86933C13.4686 -0.362317 23.6392 0.757905 32.6693 7.44496L30.0415 10.0709C24.8964 6.42647 19.3797 4.77336 15.1732 5.64323L15.1555 5.64617L15.1445 5.64803C13.6182 5.93146 12.2105 6.66185 11.0999 7.74655C10.0238 8.84404 9.297 10.2357 9.01111 11.7459C9.00701 11.7649 9.00408 11.7833 9.00139 11.8025C8.09225 16.1699 9.89369 21.9383 13.8317 27.2498C15.7872 29.882 18.1183 32.2131 20.7505 34.1685C25.1109 37.4009 29.9448 39.2232 33.9292 39.2228C34.7133 39.227 35.4957 39.1487 36.2634 38.9892C36.2725 38.9872 36.2804 38.9838 36.2895 38.9818C36.308 38.9772 36.3259 38.9723 36.3442 38.9663C39.4095 38.3842 41.7966 35.9691 42.3429 32.8971C42.3503 32.8694 42.3561 32.8413 42.3604 32.8129C43.2191 28.607 41.566 23.101 37.9285 17.9589L40.555 15.3305C47.2413 24.3598 48.3623 34.5313 43.1306 39.7698Z" fill="black"/>
</svg>
