<svg width="48" height="48" viewBox="0 0 48 48" fill="none" xmlns="http://www.w3.org/2000/svg">
<path d="M41.3512 12.6664L41.1455 12.8721C41.1972 12.7914 41.2642 12.7216 41.3426 12.6664H41.3512Z" fill="black"/>
<path d="M41.3426 12.6664C41.2642 12.7216 41.1972 12.7914 41.1455 12.8721L41.3512 12.6664H41.3426Z" fill="black"/>
<path d="M41.454 12.5722C41.4454 12.5722 41.4368 12.5807 41.4282 12.5893L41.3768 12.6407L41.3511 12.6664H41.3426C40.9913 12.9485 40.5502 13.0945 40.1 13.0777C38.7675 12.9726 37.5243 12.3663 36.6209 11.381C35.8192 10.6181 35.2566 9.63864 35.0014 8.56177C34.8372 7.93598 34.9363 7.27027 35.2756 6.7194L35.327 6.65942L35.4127 6.57372C35.4348 6.5528 35.4549 6.52985 35.4727 6.50517C35.8321 6.21899 36.2817 6.07014 36.7409 6.08528C36.9626 6.08654 37.1836 6.1095 37.4007 6.15383C38.4802 6.40876 39.4625 6.97136 40.2286 7.77341C41.8481 9.40155 42.4051 11.5867 41.454 12.5722Z" fill="black"/>
<path d="M24.8469 29.1707L20.9393 33.0783C19.8132 32.2097 18.7454 31.2679 17.743 30.259C16.7341 29.2566 15.7924 28.1889 14.9238 27.0627L18.8227 23.1552C19.1108 24.6433 19.8533 26.0055 20.9479 27.0541C21.954 28.0923 23.2401 28.8158 24.6498 29.1364C24.7148 29.1513 24.7806 29.1627 24.8469 29.1707Z" fill="black"/>
<path d="M15.695 38.3226L14.401 39.6252L14.3839 39.6423L14.341 39.6766C13.7861 40.1318 13.043 40.2855 12.353 40.0879C10.1733 39.5307 8.47133 37.8287 7.91415 35.6491C7.71726 34.959 7.87093 34.2163 8.32547 33.661L9.6794 32.3071C10.5792 33.4039 11.5389 34.4665 12.5329 35.4691C13.5374 36.4738 14.5928 37.4262 15.695 38.3226Z" fill="black"/>
<path d="M12.2244 41.8017L10.1849 43.8497L10.1764 43.8583C10.1414 43.8922 10.1042 43.9237 10.065 43.9526C9.06238 44.8523 6.90295 44.2953 5.30908 42.6929C4.5104 41.9276 3.94827 40.9491 3.68951 39.8736C3.52871 39.2438 3.63078 38.5757 3.97229 38.0227C3.99061 37.9957 4.01387 37.9725 4.04084 37.9541L4.06655 37.9199L6.20028 35.7861C6.20092 35.8526 6.20955 35.9188 6.22598 35.9832C6.54808 37.3943 7.2747 38.6808 8.31687 39.6851C9.31936 40.728 10.607 41.4522 12.0188 41.7674C12.0865 41.783 12.1552 41.7945 12.2244 41.8017Z" fill="black"/>
<path d="M7.98271 46.0349L6.54309 47.4831L6.50881 47.5173H6.50024L6.48311 47.5345L6.47454 47.5431C5.48908 48.4857 3.30394 47.9287 1.69293 46.3091C0.0733549 44.6981 -0.483642 42.5129 0.458968 41.5275L0.467537 41.5189C0.467537 41.5103 0.476106 41.5103 0.484676 41.5018L1.97571 40.0107C1.98369 40.077 1.99513 40.1428 2.00999 40.2078C2.33068 41.6175 3.05411 42.9036 4.0923 43.9097C5.14127 44.9993 6.4991 45.741 7.98271 46.0349Z" fill="black"/>
<path d="M29.0715 24.9461L28.8058 25.2117V25.2203L27.5633 26.4543L26.9806 27.0455L26.9121 27.1141H26.9035C26.3454 27.5056 25.6431 27.6311 24.984 27.4569C23.9071 27.2016 22.9277 26.639 22.1647 25.8373C20.528 24.2091 19.9796 21.9983 20.9565 21.0214L20.9822 20.9871L21.9591 20.0102C21.9848 19.9931 22.0105 19.9674 22.0362 19.9503L22.7817 19.2047L22.816 19.2219L22.7903 19.1962L23.0474 18.9391C23.0701 19.1098 23.1044 19.2787 23.1502 19.4447C23.1967 19.6334 23.2539 19.8194 23.3216 20.0017L23.3301 20.0102C23.636 20.8501 24.095 21.6259 24.684 22.2982C24.8383 22.4782 25.0011 22.6581 25.1725 22.8295C25.8501 23.5204 26.6489 24.081 27.529 24.4833H27.5376C27.6801 24.5506 27.826 24.6107 27.9746 24.6633H27.9832L27.9917 24.6719C28.1794 24.7408 28.3711 24.798 28.5659 24.8433C28.6665 24.877 28.7697 24.9028 28.8744 24.9204C28.9388 24.9368 29.005 24.9454 29.0715 24.9461Z" fill="black"/>
<path d="M42.1309 31.8785C42.1056 32.3106 42.0483 32.7403 41.9595 33.1639C41.9167 33.361 41.8739 33.5495 41.8224 33.7295L30.2712 26.1715L30.6996 25.743C30.7253 25.7259 30.7511 25.7002 30.7768 25.683L31.5223 24.9375L42.1309 31.8785Z" fill="black"/>
<path d="M37.315 38.2455C37.135 38.3054 36.9465 38.3483 36.758 38.3911C36.3367 38.4786 35.9102 38.5387 35.4812 38.5711L28.523 27.9282L29.7655 26.6771L37.315 38.2455Z" fill="black"/>
<path d="M39.2945 14.7231L37.1179 16.8996L31.1966 22.8295L31.188 22.8381C30.6301 23.2805 29.8934 23.4272 29.2086 23.2323C28.1319 22.9753 27.1509 22.4164 26.3807 21.6213C26.1362 21.3723 25.9099 21.1059 25.7038 20.8243C25.356 20.3556 25.0842 19.8351 24.8983 19.2819C24.5123 18.4712 24.6185 17.512 25.1725 16.8054L25.1982 16.7711L25.2067 16.7625L31.2394 10.7384L33.2875 8.69037C33.2947 8.75956 33.3061 8.82824 33.3217 8.89603C33.6424 10.3057 34.3659 11.5918 35.404 12.5979C36.453 13.6875 37.8109 14.4292 39.2945 14.7231Z" fill="black"/>
<path d="M23.0645 16.4797L22.3275 17.2167C22.3104 17.2424 22.2847 17.2682 22.2675 17.2938L21.8391 17.7223L14.2896 6.17958C14.4781 6.12817 14.6667 6.08532 14.8552 6.04248C15.2788 5.95373 15.7085 5.89644 16.1406 5.87109L23.0645 16.4797Z" fill="black"/>
<path d="M44.4703 40.9019C38.729 46.6433 27.4434 45.2722 17.5888 37.6456C17.5462 37.6013 17.4971 37.5637 17.4431 37.5342C16.1465 36.5162 14.9131 35.4202 13.7498 34.2522C12.5818 33.0889 11.4858 31.8555 10.4678 30.5589C10.4384 30.5049 10.4008 30.4558 10.3564 30.4132C2.72983 20.5587 1.35876 9.27306 7.10012 3.53171C12.7044 -2.07254 23.6044 -0.898564 33.2704 6.28241L30.4511 9.10167C25.164 5.34837 19.5083 3.57455 15.0866 4.26009C14.8895 4.28579 14.6924 4.32007 14.5039 4.36292C14.0999 4.44416 13.7019 4.55296 13.3128 4.68855C10.9187 5.45795 9.03855 7.3285 8.25696 9.71866C8.12419 10.1029 8.01544 10.4949 7.93133 10.8926C7.88848 11.0897 7.85421 11.2868 7.8285 11.4839C7.10012 16.077 9.01961 21.964 13.0386 27.4226C13.0558 27.4503 13.0759 27.4762 13.0985 27.4997C13.1189 27.5351 13.145 27.567 13.1757 27.594C14.1993 28.9656 15.3189 30.2628 16.5262 31.4758C17.7393 32.6831 19.0365 33.8028 20.4081 34.8264C20.4574 34.869 20.5088 34.909 20.5623 34.9463C25.2154 38.3826 30.3655 40.3192 34.6158 40.3192C35.2552 40.3183 35.8937 40.2725 36.5267 40.1821C36.7238 40.1478 36.9209 40.1136 37.118 40.0707C37.5168 39.9877 37.9092 39.876 38.2919 39.7365C40.6761 38.958 42.5431 37.0846 43.3135 34.6978C43.4502 34.312 43.559 33.9168 43.6391 33.5153C43.682 33.3268 43.7162 33.1297 43.742 32.9326C44.4275 28.4937 42.6537 22.8381 38.9004 17.5509L41.7282 14.7316C48.892 24.4062 50.0746 35.2977 44.4703 40.9019Z" fill="black"/>
<path d="M9.74797 10.687L21.3164 18.245L20.8879 18.6649C20.8644 18.6901 20.8386 18.713 20.8108 18.7334L20.0652 19.4789L9.43091 12.5379C9.45904 12.1027 9.51919 11.6703 9.61086 11.2439C9.65371 11.0554 9.69655 10.8669 9.74797 10.687Z" fill="black"/>
</svg>
