<svg width="48" height="45" viewBox="0 0 48 45" fill="none" xmlns="http://www.w3.org/2000/svg">
<path d="M47.2 0.918701H0.799969C0.36 0.918701 0 1.2787 0 1.71867V36.6684C0 37.1084 0.36 37.4684 0.799969 37.4684H47.2C47.64 37.4684 48 37.1084 48 36.6684V1.71867C48 1.2787 47.64 0.918701 47.2 0.918701ZM42.6997 32.1683H5.5845L5.30034 32.1681V6.21923H42.6997V32.1683Z" fill="black"/>
<path d="M15.05 40.4685H10.6091L10.5725 40.4683V40.4685H10.55C10.55 41.28 10.55 44.0807 10.55 44.9368V44.9459C10.55 44.9527 10.55 44.9619 10.55 44.9685H15.05H32.9501H37.4499C37.4499 44.1478 37.4499 41.2891 37.4499 40.4685H32.9501H15.05Z" fill="black"/>
</svg>
