<svg width="29" height="43" viewBox="0 0 29 43" fill="none" xmlns="http://www.w3.org/2000/svg">
<path d="M13.1532 43C14.8617 43 16.2467 41.615 16.2467 39.9065C16.2467 38.198 14.8617 36.813 13.1532 36.813C11.4447 36.813 10.0597 38.198 10.0597 39.9065C10.0597 41.615 11.4447 43 13.1532 43Z" fill="black"/>
<path d="M28.8858 10.673C28.6778 9.10297 28.1462 7.59319 27.3246 6.23916C26.5031 4.88514 25.4095 3.71634 24.113 2.80671C22.2893 1.55768 20.2272 0.698996 18.0561 0.284533C15.8849 -0.12993 13.6515 -0.0912289 11.496 0.398208C7.62553 1.07936 3.96957 2.66134 0.823421 5.01635C0.597086 5.19916 0.408974 5.42476 0.269825 5.68027C0.130677 5.93577 0.0432161 6.21619 0.0124386 6.5055C-0.0497196 7.08978 0.122776 7.67483 0.491976 8.13194C0.861177 8.58904 1.39684 8.88076 1.98113 8.94292C2.56541 9.00508 3.15046 8.83258 3.60756 8.46338C6.17372 6.53538 9.15502 5.2339 12.3135 4.66281C13.8758 4.28911 15.4984 4.24145 17.0799 4.52278C18.6615 4.80411 20.168 5.4084 21.5056 6.29794C22.3097 6.85522 22.9898 7.5728 23.5031 8.40558C24.0165 9.23836 24.352 10.1683 24.4886 11.137C25.2178 17.081 17.4399 19.4232 12.7334 20.2849L10.9215 20.6164V30.2504C10.9215 30.8364 11.1543 31.3985 11.5687 31.8129C11.983 32.2272 12.5451 32.46 13.1311 32.46C13.7171 32.46 14.2792 32.2272 14.6936 31.8129C15.1079 31.3985 15.3407 30.8364 15.3407 30.2504V24.3065C28.6869 21.2572 29.2836 13.7886 28.8858 10.673Z" fill="black"/>
</svg>
