<svg width="32" height="32" viewBox="0 0 32 32" fill="none" xmlns="http://www.w3.org/2000/svg">
<path d="M30.9285 25.318C30.9603 24.9015 30.8444 24.5356 30.6148 24.1894C30.3808 23.8368 30.2638 23.456 30.4401 23.036L30.468 22.9405C30.5716 22.5621 30.5242 22.2125 30.243 21.9223C30.0319 21.7038 29.9741 21.4533 30.0358 21.1651C30.1174 20.7863 30.0906 20.4351 29.8611 20.0955C29.6624 19.8007 29.6281 19.4754 29.786 19.1268C29.9194 18.8341 30.0065 18.518 30.0911 18.2066C30.1568 17.9639 30.1573 17.7069 30.0652 17.4707C29.9905 17.2781 30.01 17.1032 30.0563 16.9136C30.1056 16.7135 30.133 16.507 30.1599 16.3025C30.1808 16.145 30.1281 16.0058 30.01 15.8978C29.8546 15.7562 29.8009 15.5799 29.8267 15.3794C29.8576 15.149 29.9024 14.9212 29.7815 14.6994C29.76 14.6608 29.7726 14.6014 29.776 14.5518C29.8059 14.1517 29.7043 13.7792 29.5464 13.4167C29.4558 13.2077 29.4176 12.9879 29.4414 12.7606C29.4872 12.3193 29.4593 11.8791 29.3822 11.4468C29.2991 10.9818 29.168 10.5261 29.0695 10.0636C29.0351 9.90359 29.0128 9.73529 29.0227 9.57334C29.0431 9.243 29.0829 8.91322 29.1273 8.5844C29.1811 8.18816 29.2786 7.80389 29.4504 7.43842C29.6152 7.08485 29.7681 6.72533 29.921 6.36628C29.9757 6.23653 30.0225 6.10234 30.0554 5.9656C30.0953 5.80119 30.0933 5.63527 29.9932 5.48577C29.8603 5.28717 29.685 5.25005 29.5107 5.41645C29.3688 5.55358 29.2344 5.71014 29.1392 5.88145C28.9521 6.21821 28.7369 6.53014 28.4775 6.81495C28.2968 7.01355 28.2197 7.25029 28.2087 7.52067C28.1882 8.04611 28.0677 8.5384 27.6849 8.93599C27.5758 9.0494 27.4803 9.17717 27.3922 9.30788C27.3035 9.43763 27.2104 9.57183 27.16 9.71792C27.0401 10.0621 26.9096 10.4087 26.8484 10.7663C26.7672 11.2421 26.6417 11.7028 26.5148 12.1673C26.4093 12.5531 26.229 12.87 25.9571 13.1484C25.7849 13.3247 25.6643 13.5337 25.5892 13.7644C25.499 14.0407 25.4204 14.3201 25.3452 14.6009C25.3113 14.7287 25.2878 14.8609 25.2755 14.9921C25.2177 15.62 25.1718 16.249 25.1077 16.8754C25.0922 17.024 25.1058 17.1889 25.0021 17.3236L24.9579 17.2851C24.7925 17.0587 24.7726 16.7967 24.7472 16.5293C24.6884 15.9023 24.6242 15.2769 24.6496 14.6455C24.6571 14.4548 24.6496 14.2637 24.6555 14.073C24.6605 13.917 24.5948 13.8011 24.4762 13.708C24.431 13.6729 24.3842 13.6402 24.3318 13.6015C24.3413 13.4841 24.3507 13.3687 24.3598 13.2539C24.3812 12.9736 24.3428 12.7131 24.1605 12.4779C24.0954 12.3947 24.067 12.263 24.068 12.154C24.0704 11.8727 24.0968 11.5909 24.1194 11.3101C24.1367 11.0773 24.0525 10.8882 23.8892 10.7283C23.8474 10.6881 23.7931 10.6555 23.7632 10.6084C23.7165 10.5351 23.6487 10.4504 23.6533 10.3742C23.6676 10.1023 23.6915 9.82848 23.7448 9.56207C23.7866 9.35206 23.8827 9.15346 23.943 8.94646C24.0515 8.57202 24.165 8.19918 24.2506 7.81936C24.2945 7.6252 24.1973 7.4895 24.033 7.41582C23.8757 7.34396 23.7442 7.36125 23.6183 7.53217C23.4016 7.82538 23.199 8.13089 23.0148 8.44433C22.9336 8.58345 22.9002 8.75381 22.8639 8.91433C22.8036 9.18376 22.7389 9.45167 22.5368 9.65566C22.3181 9.87654 22.1987 10.1454 22.121 10.4391C22.1086 10.4876 22.0835 10.5332 22.0547 10.6035C21.9183 10.2539 21.8626 10.2197 21.5668 10.29C21.5563 10.2425 21.5524 10.1924 21.5339 10.1483C21.4518 9.95078 21.2955 9.92009 21.1481 10.078C21.0863 10.1434 21.0236 10.2186 20.9932 10.3013C20.8792 10.6129 20.7642 10.9249 20.675 11.2432C20.5864 11.5626 20.5416 11.894 20.4555 12.2139C20.2653 12.9181 20.1254 13.6371 19.8201 14.3077C19.7828 14.3894 19.7687 14.4825 19.7519 14.5716C19.6633 15.0516 19.6768 15.5289 19.7788 16.0058C19.9008 16.5733 19.8889 17.1438 19.7998 17.7144C19.743 18.0833 19.5255 18.368 19.2909 18.6409C18.9195 19.0722 18.7571 19.5684 18.8035 20.1364C18.8258 20.4127 18.8846 20.6753 18.9966 20.9294C19.1909 21.368 19.2625 21.8172 19.0868 22.2823C19.0574 22.3596 19.036 22.4418 19.026 22.5234C18.9996 22.7295 18.9917 22.9316 19.0858 23.1331C19.1391 23.2485 19.1629 23.3871 19.1639 23.5159C19.1674 24.0225 19.1554 24.5287 19.1544 25.0352C19.1539 25.1249 19.1708 25.217 19.1953 25.3037C19.2297 25.4295 19.3033 25.5325 19.4384 25.5636C19.5846 25.5973 19.6743 25.5022 19.7499 25.3998C19.8853 25.2161 19.9809 25.013 20.0039 24.7846C20.0458 24.3741 20.1813 23.9948 20.3425 23.6189C20.4152 23.4477 20.4451 23.251 20.4575 23.0638C20.4814 22.6963 20.4002 22.3379 20.3235 21.9802C20.3046 21.8926 20.2907 21.7969 20.3061 21.7103C20.3823 21.284 20.5462 20.8892 20.8723 20.5981C21.1406 20.357 21.2522 20.0845 21.206 19.737C21.1954 19.6543 21.2019 19.5691 21.1844 19.4883C21.1292 19.2383 21.1621 18.9971 21.2183 18.7504C21.295 18.4112 21.3816 18.07 21.41 17.7248C21.4573 17.1517 21.5559 16.5912 21.6913 16.0345C21.7859 15.6482 21.7874 15.2649 21.649 14.8831C21.5146 14.5117 21.5265 14.1353 21.6565 13.7595C21.7213 13.5718 21.7571 13.3747 21.8193 13.186C21.888 12.977 21.9358 12.7552 22.131 12.5427C22.1469 12.6631 22.1688 12.7408 22.1654 12.8166C22.1519 13.0652 22.1345 13.3133 22.1096 13.5599C22.0783 13.8804 22.147 14.1552 22.4328 14.3429C22.5597 14.4256 22.625 14.545 22.6495 14.6916C22.6747 14.8387 22.749 14.9773 22.8759 15.0353C23.1766 15.1735 23.227 15.4304 23.2549 15.7093L23.2624 15.7835C23.3216 16.2797 23.4092 16.7636 23.6572 17.2132C23.7573 17.3945 23.7708 17.6247 23.815 17.8342C23.8449 17.9714 23.8324 18.1225 23.8852 18.2488C23.9893 18.4998 23.9719 18.749 23.9455 19.0074C23.8912 19.5577 24.0406 19.8755 24.5305 19.9721C24.6516 19.9959 24.7193 20.0692 24.7307 20.1935C24.7432 20.3168 24.7595 20.4401 24.7756 20.5634C24.8173 20.8853 24.8677 21.2062 25.0698 21.4766C25.1878 21.6346 25.3386 21.7258 25.5454 21.6782C25.7156 21.6386 25.8566 21.4657 25.8755 21.2553C25.8934 21.0651 25.9089 20.873 25.8979 20.6833C25.868 20.1663 26.0204 19.7023 26.2679 19.2566C26.3386 19.1293 26.3943 18.9827 26.4142 18.839C26.4501 18.577 26.4625 18.3107 26.4705 18.0457C26.4849 17.5673 26.5716 17.1202 26.9584 16.7859L27.0088 16.7304C27.3563 16.2569 27.553 15.7454 27.431 15.1471C27.3379 14.6876 27.4181 14.2399 27.541 13.7972C27.565 13.7105 27.6008 13.6268 27.6317 13.5416C27.674 13.6437 27.674 13.7348 27.674 13.8259C27.6745 14.1072 27.7611 14.3464 28.0046 14.5143C28.0654 14.5563 28.1167 14.6138 28.1659 14.6702C28.2865 14.8094 28.3506 14.9664 28.2979 15.1526C28.2491 15.3284 28.1998 15.5037 28.146 15.6785C28.0414 16.0188 27.8886 16.3525 27.8383 16.7001C27.7671 17.1934 27.7915 17.695 27.9847 18.1719C28.024 18.2705 28.0639 18.3759 28.0704 18.4804C28.0833 18.7207 28.0902 18.9628 28.0748 19.2025C28.0216 20.0107 28.2431 20.7277 28.7684 21.3488C28.9049 21.5093 28.9168 21.6781 28.866 21.8817C28.7968 22.161 28.7506 22.4487 28.7286 22.7355C28.7042 23.0436 28.8322 23.2852 29.1408 23.4031L29.1837 23.4477C29.1837 23.6042 29.1852 23.7701 29.1827 23.9354C29.1802 24.1553 29.2534 24.345 29.4207 24.4891C29.5521 24.6031 29.6871 24.7184 29.8359 24.8075C29.9878 24.8991 30.0336 25.0165 30.0116 25.1829C29.9907 25.3389 29.9828 25.4964 29.9724 25.6539C29.9639 25.786 29.9973 25.9024 30.1257 25.9693C30.2447 26.0312 30.3319 25.9594 30.421 25.8955L30.4692 25.8925L30.5011 25.9273C30.6469 26.0734 30.741 26.098 30.8701 26.0247C30.9985 25.9515 31.0253 25.8445 30.9785 25.6583C30.9505 25.5474 30.9201 25.4295 30.9285 25.318Z" fill="#11B0C8"/>
<path d="M15.6482 24.46C15.5994 24.1525 15.473 23.8752 15.2519 23.6444C14.986 23.3646 14.8237 23.0413 14.7988 22.648C14.7699 22.1963 14.5096 21.8986 14.0973 21.7402C13.9618 21.6877 13.8657 21.6169 13.801 21.4941C13.7238 21.3474 13.6357 21.2049 13.5715 21.0529C13.4899 20.8602 13.3475 20.7305 13.1558 20.6883C12.9322 20.6383 12.8336 20.5031 12.7843 20.3046C12.7659 20.2317 12.741 20.1604 12.73 20.0866C12.6549 19.6107 12.3934 19.2621 11.9831 19.0214C11.8522 18.9441 11.787 18.8366 11.7252 18.7034C11.5997 18.4335 11.4852 18.1458 11.3 17.92C11.036 17.5985 10.704 17.3509 10.2349 17.5351L10.1757 17.5188C10.119 17.4005 10.0676 17.2687 9.99595 17.1488C9.82067 16.8581 9.70616 16.8324 9.41239 17.0008L9.37212 17.0033C9.34668 16.9508 9.31933 16.8928 9.29046 16.8349C9.18991 16.6349 9.09972 16.4283 8.98529 16.2362C8.88266 16.0638 8.75874 15.9073 8.51624 15.9187C8.45452 15.9216 8.39025 15.8642 8.28124 15.8133C8.40324 15.729 8.4664 15.6731 8.53913 15.6375C8.76567 15.525 8.93696 15.3615 9.02261 15.1238C9.06144 15.0168 9.13369 14.9574 9.23074 14.9277C9.34971 14.8915 9.4722 14.8594 9.59572 14.8485C9.92833 14.8187 10.1489 14.6216 10.3107 14.3621C10.4775 14.0947 10.6005 13.8015 10.6523 13.4856C10.6787 13.3221 10.7076 13.1736 10.8769 13.0741C10.957 13.0271 11.0068 12.9027 11.0362 12.8037C11.0721 12.6779 11.0875 12.5417 11.086 12.411C11.0836 12.1837 11.1408 11.9936 11.3051 11.8241C11.6059 11.5167 11.691 11.1363 11.6208 10.7188C11.564 10.3815 11.5282 10.0512 11.6542 9.71397C11.804 9.3148 11.7084 8.95972 11.3654 8.69085C11.2603 8.6086 11.2214 8.51803 11.2394 8.39177C11.2503 8.31793 11.2578 8.24314 11.2612 8.16842C11.2732 7.91241 11.2881 7.65639 11.2896 7.39989C11.2896 7.32954 11.2647 7.24635 11.2224 7.19035C10.9242 6.79665 10.6846 6.67633 10.2639 6.82242C10.1772 6.85264 10.09 6.88587 10.0005 6.89967C9.8556 6.92339 9.80433 6.87691 9.78886 6.73177C9.77793 6.62478 9.77642 6.51588 9.75449 6.41087C9.71063 6.19055 9.58272 6.08356 9.35513 6.07166C9.27244 6.06714 9.18735 6.07118 9.10618 6.08704C8.85475 6.13606 8.63864 6.0945 8.4345 5.92208C8.29113 5.79978 8.11386 5.7146 7.94408 5.62648C7.6488 5.47293 7.34458 5.33628 7.05128 5.17924C6.87011 5.08121 6.68239 5.02966 6.47865 5.02228C6.37905 5.01832 6.2765 5.0322 6.1789 5.01483C5.8553 4.95693 5.59382 5.07431 5.3459 5.26696C5.0696 5.48142 4.78826 5.69033 4.49943 5.88797C4.12002 6.14796 3.70926 6.27819 3.24667 6.13114L3.14907 6.11131C2.96088 6.05239 2.79102 6.10092 2.6183 6.18111C2.34 6.31086 2.10842 6.49606 1.91074 6.72535C1.79472 6.86057 1.6767 6.91205 1.49744 6.83036C1.33811 6.7585 1.24601 6.78824 1.17033 6.9126C0.989155 7.21026 0.872092 7.70199 1.248 8.05651C1.30876 8.11346 1.36953 8.17049 1.4338 8.22339C1.69424 8.43785 1.72949 8.70719 1.6334 9.01175C1.59161 9.14594 1.54528 9.28069 1.5204 9.4183C1.41929 9.9853 1.4637 10.5122 1.94966 10.9169C2.05117 11.0011 2.13785 11.1066 2.21903 11.2115C2.3644 11.3993 2.47397 11.5988 2.40778 11.8539C2.35794 12.046 2.33657 12.245 2.28777 12.4367C2.24638 12.5987 2.24638 12.7447 2.34255 12.8894C2.37692 12.9409 2.40132 13.0146 2.39534 13.0741C2.37947 13.2295 2.4128 13.3697 2.48003 13.5074C2.55227 13.6544 2.55817 13.8006 2.51145 13.964C2.43473 14.2304 2.46416 14.4899 2.65283 14.7142C2.73345 14.8098 2.80617 14.9108 2.88679 15.0064C3.00681 15.148 3.06606 15.2981 3.00976 15.4883C2.94604 15.7032 2.97938 15.9082 3.07698 16.1147C3.28415 16.5539 3.4186 17.0195 3.42059 17.5063C3.42107 17.7822 3.44747 18.0708 3.2812 18.3269C3.14078 18.5424 3.22092 18.7597 3.36429 18.9241C3.56349 19.1529 3.65663 19.4217 3.75615 19.6952C3.80296 19.8245 3.79204 19.9345 3.71883 20.0489C3.49922 20.393 3.48726 20.7624 3.57641 21.1507C3.63917 21.4236 3.76261 21.6663 3.91197 21.896C4.01851 22.0599 4.09865 22.2293 4.12855 22.4204C4.15351 22.5829 4.21818 22.719 4.34768 22.827C4.38851 22.8612 4.4283 22.9187 4.43277 22.9697C4.45964 23.24 4.52439 23.5065 4.44625 23.7839C4.36658 24.0656 4.43229 24.2152 4.69074 24.3682C4.86402 24.4706 4.92773 24.6163 4.9377 24.7985C4.9452 24.9391 4.93571 25.0813 4.94272 25.222C4.95668 25.4705 5.03283 25.6949 5.23203 25.8614C5.32214 25.9366 5.41927 26.0139 5.5467 25.9604C5.6766 25.9069 5.72947 25.791 5.73194 25.6593C5.73537 25.5023 5.72795 25.3438 5.71751 25.1868C5.69956 24.913 5.70953 24.6531 5.99238 24.4985L6.02922 24.4652C6.32602 24.1727 6.35688 23.8655 6.15075 23.502C5.9994 23.2346 5.93018 22.9508 6.06558 22.6463C6.11885 22.5264 6.16327 22.3942 6.17268 22.2645C6.18113 22.1377 6.16965 21.9936 6.11447 21.8827C6.00737 21.6688 5.86654 21.4707 5.73353 21.2696C5.52493 20.9547 5.40691 20.6334 5.63146 20.2747L5.66232 20.2069C5.8754 19.8202 5.8943 19.4339 5.65339 19.0511C5.57971 18.9341 5.57022 18.8218 5.65291 18.704C5.80674 18.487 5.77636 18.2701 5.65634 18.0482C5.58513 17.9175 5.52341 17.7798 5.47357 17.6402C5.37796 17.3727 5.46464 17.2102 5.78481 17.0973C5.91176 17.2349 6.04868 17.391 6.19309 17.5401C6.40768 17.7609 6.67458 17.846 6.96939 17.7625C7.19147 17.6996 7.32289 17.7912 7.43094 17.9536C7.54593 18.127 7.64353 18.3111 7.76155 18.4815C7.85565 18.6166 7.9582 18.7499 8.07773 18.8628C8.20269 18.9822 8.3003 18.9663 8.42525 18.8464C8.6573 18.6217 8.70706 18.6177 8.92867 18.847C9.0502 18.9743 9.18113 19.0648 9.36438 19.0432C9.5013 19.0263 9.58846 19.0832 9.64269 19.2026C9.75871 19.4591 9.88319 19.7122 9.98973 19.9722C10.1232 20.299 10.3438 20.402 10.662 20.2683C10.7077 20.249 10.7526 20.2267 10.7994 20.2079C10.9791 20.1356 10.9975 20.132 11.1006 20.3053C11.2276 20.5188 11.3436 20.7397 11.4501 20.9645C11.593 21.2642 11.828 21.4608 12.1453 21.5162C12.3384 21.5504 12.44 21.6406 12.5177 21.7965C12.558 21.8783 12.6068 21.9565 12.6472 22.0382C12.8344 22.4161 13.0465 22.7687 13.4841 22.9089L13.5678 22.9624C13.7834 23.1109 13.9871 23.2649 14.0015 23.562C14.0164 23.8573 14.1379 24.1237 14.2485 24.3931C14.3241 24.5768 14.4342 24.7249 14.6125 24.82C14.7574 24.8977 14.856 25.0136 14.9137 25.1702C14.9689 25.3177 15.0357 25.4618 15.1059 25.6024C15.204 25.7976 15.3822 25.919 15.5072 25.8862C15.6372 25.852 15.7059 25.7099 15.6994 25.4658C15.6969 25.3588 15.6417 25.24 15.673 25.1473C15.7533 24.9101 15.6841 24.6858 15.6482 24.46ZM8.0515 13.8983C7.99975 13.931 7.93396 13.9444 7.87271 13.9578C7.73675 13.9894 7.59489 14.0028 7.46292 14.0465C7.31356 14.096 7.16564 14.1584 7.02824 14.2356C6.92266 14.2956 6.82059 14.3753 6.74443 14.4678C6.63487 14.602 6.50592 14.6951 6.32961 14.7655C6.2698 14.7155 6.21263 14.6565 6.14541 14.6115C5.8506 14.4138 5.67237 14.3996 5.43689 14.5753C5.37262 14.6234 5.29742 14.6556 5.17047 14.7269C5.19439 14.5704 5.20085 14.4684 5.22725 14.3718C5.25165 14.2846 5.30141 14.2049 5.33378 14.1197C5.43338 13.8583 5.403 13.7488 5.16297 13.5972C5.06441 13.5354 5.02701 13.464 5.02956 13.3541C5.03355 13.1882 5.03108 13.0218 5.03004 12.8554C5.02909 12.6103 4.93092 12.4271 4.70094 12.3166C4.54656 12.2423 4.53317 12.1888 4.57104 12.0185C4.59489 11.9145 4.61482 11.8075 4.62678 11.701C4.66913 11.3425 4.48891 11.0929 4.224 10.8804C4.17871 10.8442 4.13238 10.7754 4.13389 10.7224C4.13987 10.4684 4.05471 10.2144 4.15487 9.95928C4.2181 9.79733 4.11499 9.66757 4.00447 9.56304C3.83119 9.40061 3.81077 9.20352 3.8536 8.99057C3.88892 8.81133 3.97162 8.75731 4.15239 8.78206C4.20167 8.78951 4.25351 8.79047 4.30071 8.80435C4.71107 8.92768 5.03419 8.7727 5.31999 8.49336C5.36728 8.44681 5.41703 8.40168 5.46337 8.35417C5.62022 8.19269 5.81391 8.13575 6.03305 8.15859C6.17443 8.17294 6.31382 8.20657 6.45481 8.21403C6.63702 8.22394 6.81931 8.21704 7.02242 8.21704C7.42073 8.93656 7.59154 9.02277 8.205 8.80086C8.35237 8.94893 8.51815 9.08321 8.4101 9.34462C8.36082 9.46501 8.40564 9.59326 8.49176 9.69375C8.61026 9.83294 8.72875 9.97261 8.85873 10.1009C8.94685 10.1885 9.05442 10.2569 9.15554 10.3356C9.09079 10.4421 9.05993 10.4985 9.02356 10.5506C8.87572 10.763 8.8463 10.9116 9.00714 11.0948C9.22922 11.3468 9.11272 11.6123 9.09972 11.8773L9.06838 11.9426C8.91009 12.12 8.74869 12.2957 8.59088 12.4735C8.43458 12.6494 8.38777 12.8692 8.35189 13.0906C8.331 13.2213 8.32358 13.3546 8.30261 13.4858C8.27502 13.6556 8.20285 13.8042 8.0515 13.8983Z" fill="#11B0C8"/>
<path d="M17.8887 16.5889C17.7948 16.3684 17.7113 16.1475 17.7265 15.901C17.7369 15.731 17.7221 15.5597 17.7285 15.3894C17.7336 15.2517 17.739 15.1117 17.7702 14.9784C17.8257 14.742 17.8988 14.509 17.9685 14.2759C18.0011 14.1673 17.9941 14.0643 17.922 13.9772C17.8197 13.8528 17.8086 13.7135 17.8433 13.5696C17.8864 13.3926 17.9443 13.2187 17.9921 13.0427C18.0092 12.9797 18.0287 12.9133 18.0254 12.8493C18.0203 12.7401 17.9762 12.639 17.8658 12.5945C17.748 12.5466 17.6427 12.5911 17.5619 12.6799C17.5064 12.7411 17.4485 12.808 17.4185 12.883C17.3653 13.0157 17.3273 13.1553 17.2923 13.2943C17.224 13.5666 17.162 13.8409 17.0971 14.1139L17.0746 14.1763C16.942 14.377 16.8959 14.6028 16.8649 14.8348C16.8491 14.9553 16.7841 15.0346 16.6687 15.1016C16.5018 15.199 16.3463 15.3227 16.2073 15.4564C16.0754 15.5829 15.9697 15.7357 15.8533 15.8773C15.8566 15.7806 15.8513 15.6825 15.8684 15.5888C15.9283 15.2633 15.9977 14.9392 16.0619 14.6137C16.0939 14.4513 16.1286 14.2882 16.1495 14.1242C16.1599 14.0387 16.1586 13.945 16.1337 13.8634C16.1027 13.7627 16.0401 13.6693 15.9139 13.6618C15.7937 13.6538 15.7116 13.7182 15.6537 13.8156C15.6342 13.849 15.617 13.8843 15.6022 13.9199C15.4541 14.2801 15.307 14.6405 15.1495 15.0251C15.097 14.7901 14.9991 14.6194 14.7302 14.6798C14.636 14.5263 14.6127 14.3669 14.5808 14.2108C14.5552 14.087 14.495 13.984 14.4071 13.8939C14.3391 13.8242 14.253 13.8242 14.1715 13.8536C14.0884 13.884 14.0325 13.9424 14.0325 14.0414C14.0325 14.1236 14.0194 14.2058 14.0133 14.2883C14.0032 14.4253 13.9864 14.5626 13.9857 14.6996C13.9854 14.8429 13.9941 14.9872 14.011 15.1297C14.0362 15.343 13.9033 15.483 13.7895 15.6527C13.7333 15.5404 13.6771 15.45 13.6414 15.3519C13.6172 15.2863 13.6279 15.2094 13.6125 15.1397C13.5879 15.0321 13.5509 14.9274 13.526 14.8198C13.4977 14.6967 13.4748 14.5723 13.4533 14.4485C13.4429 14.3884 13.4459 14.3267 13.4348 14.2672C13.3809 13.9801 13.2971 13.6982 13.2961 13.4021C13.2958 13.3096 13.2823 13.2143 13.2581 13.1248C13.2304 13.0242 13.1541 12.971 13.076 12.9885C12.976 13.0113 12.8757 13.0442 12.8219 13.1383C12.7674 13.234 12.7166 13.3334 12.6782 13.4363C12.6378 13.545 12.6139 13.6595 12.5836 13.7717C12.5628 13.8503 12.518 13.8988 12.4292 13.8945C12.2666 13.8873 12.1848 13.9873 12.127 14.1157C12.0863 14.2068 12.0573 14.3032 12.0102 14.391C11.886 14.6243 11.8547 14.8617 11.9573 15.1103C11.9923 15.1951 12.0004 15.2816 11.9678 15.3687C11.8557 15.6687 11.8018 15.9903 11.6201 16.2653C11.5841 16.3197 11.5525 16.3857 11.5471 16.4491C11.5377 16.5564 11.5121 16.6895 11.5623 16.77C11.6528 16.9129 11.67 17.0549 11.6656 17.2107C11.6642 17.2433 11.669 17.2777 11.6767 17.3094C11.703 17.411 11.7844 17.4836 11.8736 17.4883C11.9718 17.4929 12.0324 17.4434 12.0691 17.3186C12.0963 17.2275 12.129 17.1433 12.2014 17.074C12.2856 16.9928 12.3034 16.8858 12.262 16.7812C12.2287 16.6954 12.2539 16.6317 12.302 16.5663C12.3384 16.5171 12.3818 16.4713 12.4104 16.4185C12.438 16.3667 12.4673 16.3075 12.467 16.2517C12.4653 16.0656 12.5672 15.9329 12.6769 15.7886C12.7153 15.8174 12.7382 15.8448 12.7675 15.855C12.9018 15.9002 12.9495 16.0095 12.9869 16.1273C13.0397 16.2963 13.0805 16.4697 13.1465 16.6333C13.2366 16.8588 13.345 17.077 13.4473 17.2982L13.489 17.3499C13.5449 17.408 13.6105 17.4238 13.689 17.3978C13.7923 17.3644 13.8542 17.2954 13.8549 17.1911C13.8556 16.9707 13.8479 16.7498 13.8418 16.529C13.8384 16.4055 13.83 16.2817 13.8233 16.1391C13.9421 16.2013 13.9889 16.2719 13.9788 16.3781C13.974 16.4274 13.9828 16.4785 13.9751 16.527C13.9444 16.7178 14.0709 16.8224 14.1982 16.9258C14.247 16.9651 14.3076 16.9657 14.354 16.9235C14.4745 16.8132 14.5926 16.7003 14.5695 16.5145C14.563 16.4663 14.5617 16.4138 14.5738 16.3673C14.6206 16.1887 14.6035 16.017 14.5324 15.8486C14.5088 15.7932 14.4985 15.7401 14.5338 15.6724C14.6159 15.7457 14.7014 15.7975 14.7515 15.8724C14.8697 16.0467 14.974 16.2303 15.077 16.4138C15.1584 16.5587 15.2274 16.7099 15.3065 16.8561C15.3479 16.9323 15.4092 16.9927 15.5067 16.9838C15.6057 16.9746 15.672 16.9225 15.6996 16.8241C15.7167 16.7624 15.742 16.703 15.7669 16.6333L15.7888 16.6571L15.7955 16.7059C15.8093 16.9317 15.9341 17.0707 16.1452 17.147C16.2188 17.1733 16.2908 17.2051 16.3589 17.2424C16.6348 17.3939 16.9474 17.3374 17.1444 17.0974C17.1754 17.0598 17.2047 17.0209 17.2484 16.9651C17.2669 17.049 17.2817 17.1127 17.2942 17.1764C17.3265 17.3338 17.4049 17.4662 17.522 17.5754C17.6325 17.6784 17.7828 17.686 17.9094 17.6019C18.0208 17.5276 18.0797 17.4319 18.0679 17.2943C18.0465 17.0487 17.9846 16.815 17.8887 16.5889ZM12.5106 15.1108C12.6085 14.8549 12.7008 14.6153 12.7926 14.3753L12.8364 14.3862C12.8364 14.5123 12.8179 14.6417 12.8414 14.7635C12.8637 14.8757 12.9313 14.9797 12.9889 15.1107L12.5106 15.1108ZM16.9133 16.3618C16.8565 16.408 16.8137 16.4711 16.7599 16.5219C16.6677 16.6097 16.5522 16.5942 16.534 16.4783C16.5169 16.3711 16.5465 16.2552 16.5647 16.1446C16.5825 16.0363 16.6283 15.9587 16.7501 15.9109C16.8588 15.8673 16.9446 15.7686 17.0702 15.6722C17.0985 15.939 17.1428 16.1746 16.9133 16.3618Z" fill="#11B0C8"/>
</svg>
